<?xml version="1.0" standalone="no"?>
<!DOCTYPE svg PUBLIC "-//W3C//DTD SVG 1.1//EN" "http://www.w3.org/Graphics/SVG/1.1/DTD/svg11.dtd" >
<svg xmlns="http://www.w3.org/2000/svg">
<metadata>
This is a custom SVG webfont generated by Font Squirrel.
Copyright   : Converted by ALLTYPE
</metadata>
<defs>
<font id="BaskervilleNormalRegular" horiz-adv-x="569" >
<font-face units-per-em="2048" ascent="1638" descent="-410" />
<missing-glyph horiz-adv-x="500" />
<glyph unicode=" " />
<glyph unicode="!" horiz-adv-x="505" d="M137 1116q0 20 2 56t8 75q10 57 34 104.5t71 47.5q51 0 75.5 -50.5t34.5 -109.5q4 -35 6.5 -67.5t2.5 -55.5q0 -80 -12.5 -166t-28.5 -174q-6 -43 -13.5 -86t-13.5 -88q-4 -35 -7 -70.5t-5 -70.5v2h-74q0 25 -2 50.5t-6 49.5q-6 53 -14 107l-17 106q-16 88 -28.5 173 t-12.5 167zM139 86q0 47 34 81t81 34t80 -34t33 -81t-33 -80t-80 -33t-81 33t-34 80z" />
<glyph unicode="&#x22;" horiz-adv-x="727" d="M102 1366h187l-53 -549h-82zM438 1366h187l-54 -549h-82z" />
<glyph unicode="#" horiz-adv-x="1206" d="M90 469l14 80h244l55 295h-237l14 80h244l90 442h88l-90 -442h297l92 442h88l-90 -442h223l-12 -80h-231l-56 -295h226l-15 -80h-231l-96 -469h-89l97 469h-299l-97 -469h-88l97 469h-238zM436 549h299l56 295h-299z" />
<glyph unicode="$" horiz-adv-x="956" d="M43 287q0 35 25.5 59.5t58.5 24.5q31 0 51.5 -21.5t38.5 -54.5q10 -18 19.5 -36.5t21.5 -39.5q29 -49 75 -92t128 -55v544q-16 6 -33.5 15.5t-36.5 17.5q-6 4 -13 7t-13 6q-109 53 -194 119.5t-85 213.5q0 176 102.5 273.5t272.5 105.5v207h76v-205q80 -12 152.5 -41.5 t129.5 -91.5l3 -3l3 -3q25 -29 45.5 -65.5t20.5 -75.5q0 -35 -19.5 -60.5t-56.5 -25.5q-35 0 -50 24.5t-28 61.5l-9 31.5t-11 33.5q-18 47 -57 89t-123 57v2v-518l4 -4l6 -3q2 -2 4 -3t4 -1q6 -2 11 -5t9 -5l7 -3l6 -3q125 -61 230.5 -141t105.5 -244q0 -152 -118 -265.5 t-269 -113.5v-221h-76v221h-17h-18q-80 10 -156.5 46t-134.5 91l-14 15l-17 16q-23 25 -42 55.5t-19 63.5zM213 1092q0 -94 62.5 -151.5t136.5 -96.5l24 -13l25 -12v490q-4 -2 -8 -2t-9 -2q-86 -6 -158.5 -61.5t-72.5 -151.5zM537 74q96 8 172.5 78.5t76.5 171.5 q0 86 -56 134t-126 85q-6 4 -14 8l-17 8l-18 9q-10 5 -18 12v-506z" />
<glyph unicode="%" horiz-adv-x="1112" d="M29 1014q0 25 3 52.5t7 53.5q18 90 71.5 165t153.5 75q96 0 150.5 -74t72.5 -162q6 -29 9.5 -56.5t3.5 -53.5q0 -27 -3 -54.5t-10 -56.5q-18 -88 -72.5 -161.5t-150.5 -73.5v2q-100 -2 -153.5 72.5t-71.5 164.5q-4 27 -7 54.5t-3 52.5zM135 1016q0 -23 2 -63t10 -83 q10 -61 37 -113t80 -52v2q53 -2 79 50t38 113q6 43 8 83t2 63t-2 62.5t-8 82.5q-12 61 -38 113.5t-79 52.5t-79.5 -52t-37.5 -114q-8 -43 -10 -82.5t-2 -62.5zM143 0l756 1366h72l-756 -1366h-72zM614 334q0 27 3.5 54.5t9.5 55.5q18 88 72.5 162t150.5 74q100 0 153.5 -75 t71.5 -165q4 -27 7 -54.5t3 -51.5q0 -25 -3 -52.5t-7 -54.5q-18 -90 -71.5 -163.5t-153.5 -73.5q-96 0 -150.5 72.5t-72.5 160.5q-6 29 -9.5 56.5t-3.5 54.5zM723 336q0 -23 2 -63t8 -83q12 -61 38 -113t79 -52v2q53 -2 78.5 50t38.5 113q6 43 8 83t2 63t-2 62.5t-8 82.5 q-12 61 -38 113.5t-79 52.5t-79 -52t-38 -114q-6 -43 -8 -82.5t-2 -62.5z" />
<glyph unicode="&#x26;" horiz-adv-x="1310" d="M10 324q0 152 94.5 256t219.5 174q-2 4 -5.5 8t-5.5 8q-2 2 -2 3t-2 3q-41 63 -74.5 132t-33.5 149q0 98 73.5 157.5t163.5 71.5q12 2 25.5 3t25.5 1q18 0 38 -2t38 -6q74 -16 136.5 -65.5t62.5 -129.5q0 -100 -64.5 -163.5t-142.5 -112.5q-14 -10 -29.5 -19.5 t-29.5 -17.5q31 -41 59.5 -84t58.5 -84q2 -4 4.5 -7t4.5 -5q41 -61 84 -121l86 -119q37 43 68.5 100.5t45.5 116.5q6 20 8.5 39t2.5 37q0 63 -48.5 85t-107.5 22v55h424v-53q-100 -25 -149.5 -98.5t-90.5 -159.5q-4 -8 -7 -15.5t-7 -15.5q-20 -45 -44 -89t-54 -81 q12 -16 25 -33.5t30 -34.5q45 -53 102.5 -96t120.5 -43h7h5q45 4 86 29.5t68 60.5l41 -51q-33 -59 -94.5 -100t-128.5 -49q-6 -2 -14 -3h-15q-113 0 -191.5 50.5t-146.5 134.5q-6 -8 -13 -16l-13 -13q-72 -72 -150 -114t-188 -42q-137 0 -243 105t-114 242zM176 408 q6 -109 84 -202t191 -104q72 0 134 27t109 80q-59 80 -115.5 162t-109.5 166q-8 10 -14 20t-15 21l-41 61l-41 61v2q-74 -55 -128 -118.5t-54 -163.5v-7v-5zM336 1079q0 -49 22.5 -91t51.5 -81q2 -2 4 -5t4 -7q12 -16 23.5 -32.5t19.5 -35.5v2q6 2 14 7.5t14 9.5 q57 37 104.5 91t47.5 126q0 66 -46 110t-110 44q-57 0 -103 -38.5t-46 -99.5z" />
<glyph unicode="'" horiz-adv-x="413" d="M111 1366h192l-53 -549h-88z" />
<glyph unicode="(" horiz-adv-x="604" d="M162 399q0 63 4 127t14 129q27 188 90.5 370.5t165.5 338.5l146 2q-129 -188 -199 -408.5t-84 -445.5q-2 -29 -3 -56.5t-1 -56.5t1 -56.5t3 -55.5q14 -225 84 -444.5t199 -405.5h-146q-102 156 -165.5 338t-90.5 368q-10 66 -14 129.5t-4 126.5z" />
<glyph unicode=")" horiz-adv-x="604" d="M23 -563q129 186 198.5 405t83.5 445q2 29 3 56.5t1 55.5q0 29 -1 56.5t-3 56.5q-14 225 -83.5 445.5t-198.5 406.5l145 2q102 -158 165.5 -340t90.5 -371q10 -66 14 -129t4 -127q0 -63 -4 -126.5t-14 -129.5q-27 -186 -90.5 -368.5t-165.5 -337.5h-145z" />
<glyph unicode="*" horiz-adv-x="956" d="M123 1108q0 6 1 12t1 13q6 29 23.5 53t50.5 24q39 0 72.5 -20.5t66.5 -46.5q27 -18 53.5 -35.5t54.5 -26.5q0 31 -7 62t-17 59q-8 29 -16.5 59.5t-8.5 61.5q0 41 24.5 62.5t57.5 21.5q37 0 61.5 -22.5t24.5 -61.5q0 -31 -7 -61.5t-17 -59.5q-8 -29 -16.5 -59.5 t-8.5 -61.5v2q27 6 51.5 23.5t48.5 36.5q35 25 70 46t76 21q31 0 51.5 -23.5t24.5 -51.5q2 -4 2 -10v-9q0 -43 -32 -60.5t-69 -21.5q-14 -2 -28.5 -3t-26.5 -1l-51 2q-8 -2 -18.5 -3t-20.5 -3q-14 0 -28.5 -3t-26.5 -9q14 -20 35.5 -38t46.5 -34q2 -2 5 -4t5 -4 q39 -27 71.5 -56.5t36.5 -72.5q0 -37 -27.5 -64.5t-64.5 -27.5q-43 0 -68.5 43t-43.5 94q-6 16 -11.5 29.5t-9.5 27.5q-8 20 -16.5 38t-16.5 28q-12 -14 -21 -37t-18 -47q-4 -10 -7 -19.5t-5 -17.5q-18 -53 -43 -96t-72 -43h-3h-3q-33 2 -59.5 27.5t-26.5 58.5q0 39 33 71.5 t74 61.5q10 8 19 15t20 14q16 14 31.5 27t23.5 28q-12 4 -26.5 7t-28.5 5q-10 0 -19.5 1t-19.5 1l-51 2q-12 -2 -26.5 -1t-29.5 3q-37 4 -66.5 19.5t-33.5 54.5z" />
<glyph unicode="+" horiz-adv-x="1024" d="M41 655v103h418v397h104v-397h420v-103h-420v-397h-104v397h-418z" />
<glyph unicode="," horiz-adv-x="485" d="M92 104q0 47 35 81t80 34q74 0 119 -57.5t55 -124.5q2 -10 3 -20.5t1 -18.5q0 -121 -78 -220.5t-192 -131.5v35q61 45 111 103t50 140q0 20 -4 39t-12 37q-14 -4 -28.5 -5t-30.5 -1q-45 0 -77 32.5t-32 77.5z" />
<glyph unicode="-" horiz-adv-x="436" d="M0 393v101h436v-101h-436z" />
<glyph unicode="." horiz-adv-x="485" d="M129 86q0 47 34 81t81 34t79.5 -34t32.5 -81t-32.5 -80t-79.5 -33t-81 33t-34 80z" />
<glyph unicode="/" horiz-adv-x="471" d="M-158 -563l682 1929h101l-682 -1929h-101z" />
<glyph unicode="0" horiz-adv-x="956" d="M41 668q0 55 6 118.5t21 128.5q37 166 134 305.5t275 139.5q180 0 277.5 -140.5t134.5 -308.5q14 -63 20 -125.5t6 -117.5t-6 -118t-20 -126q-37 -168 -133.5 -307.5t-278.5 -139.5q-113 0 -195.5 66t-136.5 160q-61 106 -82.5 225t-21.5 240zM223 672q0 -45 4 -128 t19 -175q23 -127 75 -234.5t156 -107.5v2q104 -2 156.5 105.5t75.5 234.5q14 92 18 175t4 128t-4 128t-18 175q-23 127 -75 234.5t-157 107.5q-104 0 -156.5 -107.5t-74.5 -234.5q-14 -92 -18.5 -175t-4.5 -128z" />
<glyph unicode="1" horiz-adv-x="956" d="M205 0v55q102 -2 147 30t45 140v938h-170v60q100 4 151.5 27.5t92.5 52.5q20 12 39.5 24t44.5 23l1 1l2 1h1q4 0 6 -3t2 -8v-1114q0 -102 45 -138t140 -36v-53h-547z" />
<glyph unicode="2" horiz-adv-x="956" d="M43 0l18 84q39 31 80 65.5t82 73.5q178 164 326.5 372t148.5 443q0 106 -69.5 191.5t-182.5 85.5q-106 0 -183 -72t-77 -180q0 -10 1 -21.5t3 -21.5q10 -51 41 -94t78 -62q-6 -18 -23.5 -29.5t-37.5 -17.5q-8 -2 -15.5 -3t-15.5 -1q-55 0 -87 43t-42 96q-4 16 -6 34 t-2 32q0 158 113.5 250t263.5 92q170 0 291.5 -106.5t121.5 -280.5q0 -207 -137 -376t-303 -302q-49 -39 -98 -76t-94 -72l485 3q57 -2 82.5 33.5t44.5 78.5q0 2 1 5t3 5q2 8 6 17l8 16l47 2l-77 -307h-795z" />
<glyph unicode="3" horiz-adv-x="956" d="M66 233q0 68 45 110t108 42v2q-12 -29 -19 -58.5t-7 -60.5q0 -98 77.5 -164.5t171.5 -66.5q137 0 202 98t65 223q0 23 -2 46.5t-7 46.5q-14 82 -58 150.5t-134 74.5q-20 0 -37.5 -9.5t-34.5 -19.5q-16 -12 -33.5 -21.5t-37.5 -9.5q-29 0 -52.5 20.5t-25.5 49.5 q0 31 23.5 42t51.5 15q14 2 28 2h24h25q13 0 26 -2q12 0 25.5 -2t25.5 -4q84 35 124 111t40 162v20q0 10 -2 21q-8 100 -65.5 185t-170.5 85q-70 0 -125 -44t-55 -118q0 -43 16.5 -79t45.5 -68q-8 -6 -20.5 -9.5t-24.5 -5.5q-4 -2 -11 -2h-12q-51 4 -84 41t-33 86 q0 94 72 149.5t158 76.5q25 6 50 9t48 3h8h8q137 -6 250 -97.5t113 -236.5q0 -115 -64.5 -199t-179.5 -106q123 -25 207 -125t84 -227q0 -193 -144.5 -292.5t-322.5 -99.5q-25 0 -49.5 2.5t-48.5 8.5q-98 16 -180 75t-82 170z" />
<glyph unicode="4" horiz-adv-x="956" d="M20 334l631 1005q2 0 3 1t1 3h2q2 4 5.5 7.5t7.5 3.5t7 -3t5 -8v-3v-3v-929q76 -2 116 7t72 64q4 6 7.5 13.5t7.5 15.5l51 2l-51 -176h-203v-144q0 -84 36 -110.5t109 -26.5v-53h-462v55q78 -2 114.5 24.5t36.5 108.5v146h-496zM135 408h381v337v291z" />
<glyph unicode="5" horiz-adv-x="956" d="M41 217v9q0 5 2 12q4 33 24.5 62.5t59.5 31.5q49 0 63.5 -37t22.5 -86q0 -8 1 -15.5t3 -13.5q8 -57 37 -105t117 -48q133 0 206.5 98t98.5 217q8 33 11 65.5t3 63.5q0 16 -1 31.5t-3 32.5q-8 94 -58 172.5t-163 78.5q-12 0 -24.5 -2t-24.5 -6q-41 -14 -76 -47t-35 -76 q0 -18 -15.5 -32.5t-35.5 -14.5q-10 0 -18.5 9.5t-8.5 19.5v4l80 698q57 -6 114.5 -9t115.5 -5q57 -2 114.5 -3t114.5 -1q31 0 54.5 11t43.5 32l54 2q-10 -16 -20.5 -29.5t-20.5 -27.5q-49 -61 -105.5 -104.5t-150.5 -43.5q-41 0 -81 1t-81 3q-27 2 -54.5 3t-54.5 1v2 l-43 -397q39 35 89 51.5t102 20.5h9h11q152 0 256.5 -112.5t104.5 -260.5q0 -215 -152 -355.5t-362 -140.5q-23 0 -46.5 3.5t-48.5 9.5q-86 18 -157.5 75.5t-71.5 151.5z" />
<glyph unicode="6" horiz-adv-x="956" d="M57 549q0 47 4.5 95t12.5 95q39 233 178 427t399 194q18 0 39 -2t43 -6q49 -10 91 -38t42 -81q0 -29 -19.5 -51.5t-49.5 -22.5q-31 0 -50.5 19.5t-37.5 46.5q-2 4 -4.5 7t-6.5 7q-18 29 -42.5 53.5t-65.5 26.5q-119 0 -192.5 -103.5t-108.5 -226.5q-16 -59 -25.5 -115.5 t-11.5 -101.5v2q53 53 120.5 75.5t141.5 22.5q178 0 281.5 -135t103.5 -301q0 -178 -106.5 -318.5t-300.5 -140.5q-215 0 -316.5 156t-116.5 344q0 18 -1 36t-1 36zM238 469q0 -37 3 -80t11 -86q18 -102 71.5 -188t163.5 -86q109 0 160 82t68 178q6 39 9 76.5t3 70.5v2 q0 29 -2 63t-8 68q-18 98 -70.5 180t-163.5 82q-109 0 -163 -78.5t-72 -172.5q-6 -29 -8 -56.5t-2 -54.5z" />
<glyph unicode="7" horiz-adv-x="956" d="M78 979l57 387h47q0 -35 23.5 -46t52.5 -11l621 2l-492 -1213q-2 -6 -3 -10t-3 -6q-16 -41 -41 -73t-74 -32q-41 0 -64.5 20.5t-23.5 61.5q0 20 8.5 40t16.5 38l4 8l4 9l563 1009h-418q-88 -2 -145 -51t-76 -135z" />
<glyph unicode="8" horiz-adv-x="956" d="M39 362q0 115 70.5 204t171.5 134q-100 43 -154.5 119t-54.5 187q0 154 118.5 248t262.5 104q8 2 16 2h16q12 0 23.5 -1t23.5 -1q141 -12 259 -99.5t118 -246.5q0 -100 -59 -172t-150 -113v2q113 -45 179.5 -142.5t66.5 -217.5q0 -188 -144.5 -288.5t-318.5 -103.5h-3h-3 q-168 0 -303 105.5t-135 279.5zM209 360q4 -123 71.5 -224t202.5 -101q137 0 212 100.5t75 226.5q0 86 -52 147.5t-130 88.5l-199 68q-88 -49 -134 -117t-46 -172v-8v-9zM231 1047q0 -84 41 -134.5t117 -76.5l203 -70q80 33 118 98.5t38 151.5q0 117 -68 207t-193 90 q-113 0 -184.5 -77.5t-71.5 -188.5z" />
<glyph unicode="9" horiz-adv-x="956" d="M47 178q0 39 21.5 67.5t62.5 28.5q29 0 45.5 -23.5t28.5 -55.5l8 -21l8 -20q18 -45 51 -83t105 -38q119 0 192.5 100t106.5 219q16 57 23.5 110.5t7.5 96.5v2q-43 -47 -99.5 -70.5t-115.5 -27.5q-8 -2 -17 -2h-16q-174 0 -288 123t-114 293v16q0 8 2 16q10 170 125 310.5 t295 140.5q193 0 293 -142.5t127 -312.5q6 -39 9 -75.5t3 -73.5q0 -49 -5 -99.5t-15 -101.5q-41 -217 -177 -397.5t-378 -180.5q-20 0 -44 3.5t-48 7.5q-74 16 -135.5 63t-61.5 127zM238 909q0 -33 3 -71.5t9 -77.5q16 -96 67.5 -177t157.5 -81q113 0 166 81t70 179 q6 29 8 59.5t2 57.5v2q0 35 -4 82t-12 96q-20 98 -70.5 180t-151.5 82q-109 0 -161 -82t-70 -180q-8 -39 -11 -78t-3 -72z" />
<glyph unicode=":" horiz-adv-x="485" d="M129 86q0 47 34 81t81 34t79.5 -34t32.5 -81t-32.5 -80t-79.5 -33t-81 33t-34 80zM129 758q0 47 34 80.5t81 33.5t79.5 -33.5t32.5 -80.5t-32.5 -81t-79.5 -34v2q-47 -2 -81 32t-34 81z" />
<glyph unicode=";" horiz-adv-x="485" d="M92 104q0 47 35 81t80 34q74 0 119 -57.5t55 -124.5q2 -10 3 -20.5t1 -18.5q0 -121 -78 -220.5t-192 -131.5v35q61 45 111 103t50 140q0 20 -4 39t-12 37q-14 -4 -28.5 -5t-30.5 -1q-45 0 -77 32.5t-32 77.5zM125 758q0 47 34 79.5t81 32.5t79.5 -32.5t32.5 -79.5 t-32.5 -81t-79.5 -34v2q-47 -2 -81 32t-34 81z" />
<glyph unicode="&#x3c;" horiz-adv-x="1024" d="M86 707v14l852 545v-88l-614 -398l614 -411v-234z" />
<glyph unicode="=" horiz-adv-x="1024" d="M41 510v98h942v-98h-942zM41 803v98h942v-98h-942z" />
<glyph unicode="&#x3e;" horiz-adv-x="1024" d="M86 135v88l614 398l-614 411v234l852 -574v-12z" />
<glyph unicode="?" horiz-adv-x="843" d="M174 1253q0 55 46 87t104 44q27 8 53 11.5t47 3.5q145 0 244.5 -106.5t99.5 -250.5q0 -16 -2 -33.5t-6 -33.5q-18 -90 -83 -165t-161 -75q-31 0 -59.5 8.5t-55.5 26.5v-307h-69v418h39q20 -29 43.5 -50.5t60.5 -21.5q51 0 80 44t41 97q6 31 9 59.5t3 49.5q0 18 -2 39.5 t-6 42.5q-12 74 -53 134t-125 60q-49 0 -71.5 -22.5t-39.5 -48.5l-4 -9l-4 -8q-10 -23 -24.5 -38t-38.5 -17q-27 0 -46.5 17t-19.5 44zM254 86q0 47 34 81t81 34t79.5 -34t32.5 -81t-32.5 -80t-79.5 -33t-81 33t-34 80z" />
<glyph unicode="@" horiz-adv-x="1589" d="M119 645q0 334 235.5 542t556.5 208q233 0 408.5 -146.5t175.5 -390.5v-9v-9q-4 -125 -49 -245t-139 -206q-45 -45 -104.5 -75.5t-125.5 -30.5q-63 0 -95 46t-40 101q0 10 -1 19.5t-1 19.5q-2 -2 -4 -5t-4 -7q-45 -68 -113.5 -124.5t-154.5 -56.5q-84 0 -130.5 62.5 t-58.5 138.5q-2 14 -3 27.5t-1 25.5q0 43 9 92.5t26 98.5q45 131 140 240.5t224 109.5q59 0 105.5 -30.5t77.5 -77.5l16 86q29 0 58.5 3t56.5 7l-123 -484q-2 -6 -3 -10t-1 -8q-4 -14 -7 -27.5t-6 -27.5l-4 -29q-2 -14 -2 -27v-11q0 -5 2 -9q2 -29 17.5 -52.5t48.5 -23.5 q49 0 93 31t77 68q2 2 5 6t7 8q68 82 100.5 180t32.5 205q0 213 -151.5 345t-358.5 132q-143 0 -277 -50t-233 -157q-49 -51 -91 -131t-68 -164q-14 -51 -23.5 -100t-9.5 -92q0 -240 172 -415t412 -175q133 0 244.5 57.5t211.5 137.5v2l64 -21q-111 -113 -253 -179.5 t-300 -66.5q-272 0 -456.5 205t-184.5 469zM586 492q0 -8 1 -16.5t1 -18.5q6 -43 32.5 -80t75.5 -37q72 0 128.5 63.5t90.5 139.5q16 37 28.5 72.5t19.5 64.5q2 10 4 21.5t4 19.5v2l41 129q2 4 3 11t1 16q0 51 -31 93t-86 42q-96 0 -164.5 -94.5t-107.5 -206.5 q-20 -61 -30.5 -119.5t-10.5 -101.5z" />
<glyph unicode="A" horiz-adv-x="1480" d="M-6 0v63q88 0 138 26t83 108l492 1192h75l516 -1190q29 -70 72 -103t119 -35v-61h-563v63h45q10 -2 21.5 -2t23.5 2q27 4 50.5 17.5t23.5 44.5q0 18 -5.5 36.5t-13.5 35.5l-110 266h-545l-107 -264q-6 -16 -10 -29.5t-4 -28.5q0 -43 29.5 -59t64.5 -19q8 -2 17 -2h16 l43 2v-63h-471zM449 549h473l-179 434q-2 6 -6 14.5t-6 16.5l-24 65q-12 33 -21 66q-2 -6 -4 -13.5t-4 -13.5l-4 -12l-4 -12z" />
<glyph unicode="B" horiz-adv-x="1220" d="M29 0v63q2 -2 3 -2h3q98 4 148 28t50 136v914q0 111 -51 134t-147 27h-3h-3v66h661q139 -2 252 -75.5t113 -227.5q0 -162 -112 -233.5t-253 -92.5v2q164 -8 301 -97t137 -271q0 -174 -118.5 -272.5t-284.5 -98.5h-696zM438 227q0 -100 55.5 -127.5t143.5 -27.5 q147 0 203.5 97t56.5 228q0 225 -141.5 262t-317.5 37v2v-471zM438 764h17q147 0 259 35q118 37 117 231q0 125 -48 195.5t-181 70.5l-164 2v-534z" />
<glyph unicode="C" horiz-adv-x="1429" d="M100 664q0 299 191.5 516t501.5 217q121 0 232.5 -36t211.5 -104q10 16 18.5 34t14.5 36q2 8 6 17.5t6 17.5l57 2l19 -494h-64q-47 190 -162.5 322.5t-330.5 132.5q-219 0 -326.5 -158.5t-130.5 -349.5q-4 -31 -6 -60.5t-2 -60.5q0 -238 117.5 -435.5t388.5 -197.5h13h13 q150 10 283 103.5t188 230.5l74 -53q-78 -176 -243.5 -274.5t-352.5 -106.5h-13h-16q-305 0 -496.5 199t-191.5 502z" />
<glyph unicode="D" horiz-adv-x="1497" d="M27 0v63q2 -2 3 -2h3q98 4 148 28t50 136v914q0 111 -51 134t-147 27h-3h-3v3v63q35 -2 68 -2h69q35 -2 69 -2h68h69q34 0 68 2h68h67h71q36 0 71 -2q61 -2 119.5 -11.5t115.5 -27.5q215 -76 333 -252t118 -401q0 -303 -188.5 -486.5t-491.5 -183.5h-694zM436 297 q0 -154 49.5 -190.5t192.5 -36.5q270 0 375.5 183t105.5 421q0 293 -138 458.5t-439 165.5h-37q-18 0 -35 -2q-18 0 -36.5 -1t-37.5 -3v2v-997z" />
<glyph unicode="E" horiz-adv-x="1196" d="M29 0v63q2 -2 3 -2h3q98 4 148 28t50 136v914q0 111 -51 134t-147 27h-3h-3v66h1007l37 -334h-63q-27 113 -87.5 187.5t-187.5 74.5l-297 2v-536h129h8q90 0 134 46q45 48 49 142l63 2v-463h-63v5q-14 94 -45 144t-146 50l-129 2v-438q0 -109 58.5 -145.5t156.5 -36.5 q127 0 229.5 23.5t172.5 144.5q18 35 34.5 73.5t24.5 77.5q2 8 3 16.5t1 16.5l60 2l-27 -422h-1122z" />
<glyph unicode="F" horiz-adv-x="1056" d="M27 0v63q2 -2 3 -2h3q98 4 148 28t50 136v914q0 111 -51 134t-147 27h-3h-3v66h1001l37 -332h-61q-33 106 -89.5 184t-185.5 78l-297 2v-540h152h6q85 0 121 52q37 54 37 136l63 2v-465h-63q0 88 -36 145.5t-139 57.5l-141 2v-461q0 -117 50 -139t145 -27h5h5v-61h-610z " />
<glyph unicode="G" horiz-adv-x="1536" d="M96 637q0 305 191.5 532.5t511.5 227.5q25 0 50 -2t50 -6q84 -10 166 -42t147 -83q16 23 26.5 47t18.5 51l58 2l12 -465h-70q-27 174 -145.5 304t-306.5 130q-244 0 -345.5 -171t-119.5 -378q-4 -31 -5 -63.5t-1 -63.5q0 -33 2 -65.5t8 -65.5q25 -180 130.5 -331.5 t311.5 -151.5q29 0 66 6t78 19q72 20 132 58t60 87v188q0 78 -42 102.5t-117 24.5l-50 2v64h594v-64h-30q-66 -2 -108 -30.5t-42 -100.5v-301q-63 -10 -121.5 -27.5t-118.5 -37.5l-2 -1q-2 -1 -4 -1q-76 -27 -153.5 -46.5t-161.5 -19.5q-289 0 -479.5 192.5t-190.5 479.5z " />
<glyph unicode="H" horiz-adv-x="1552" d="M27 0v63q2 -2 3 -2h3q98 4 148 28t50 136v914q0 111 -51 134t-147 27h-3h-3v66h614v-63q-14 -2 -30.5 -3.5t-32.5 -3.5q-25 -2 -49.5 -8t-45.5 -16q-25 -12 -34 -38t-11 -52q-2 -12 -2 -24v-21v-371h680v373q0 106 -52 131.5t-153 29.5v66h615v-63q-14 -2 -30.5 -3.5 t-31.5 -3.5q-27 -2 -51 -7t-45 -17q-25 -12 -34 -38t-11 -52q-2 -12 -2 -24v-21v-910q0 -119 50 -140t134 -26h11h10v-61h-615v63q102 2 153.5 27t51.5 135v453h-680v-451q0 -117 50.5 -139t144.5 -27h5h5v-61h-614z" />
<glyph unicode="I" horiz-adv-x="669" d="M29 0v63q2 -2 3 -2h3q98 4 148 28t50 136v914q0 111 -51 134t-147 27h-3h-3v66h614v-63q-14 -2 -30.5 -3.5t-32.5 -3.5q-25 -2 -49.5 -8t-45.5 -16q-25 -12 -34 -38t-11 -52q-2 -12 -2 -24v-21v-910q0 -117 50.5 -139t144.5 -27h5h5v-61h-614z" />
<glyph unicode="J" horiz-adv-x="651" d="M-385 -367q0 43 33 75t76 32q39 0 66.5 -29.5t27.5 -68.5q0 -16 -4 -29.5t-9 -28.5q0 -39 27 -51t59 -16h20h17q166 0 226.5 106.5t60.5 251.5v1264q0 113 -54.5 135t-150.5 26v3v63h615v-63q-14 -2 -30.5 -3.5t-33.5 -3.5q-25 -2 -49.5 -8t-44.5 -16q-25 -14 -34 -39 t-11 -53q-2 -10 -2 -22v-21v-1125v-16v-14q-2 -88 -16.5 -175.5t-69.5 -160.5q-68 -94 -175.5 -145.5t-219.5 -51.5q-27 0 -60 3t-67 9q-74 16 -135.5 55t-61.5 117z" />
<glyph unicode="K" horiz-adv-x="1425" d="M27 0v63q2 -2 3 -2h3q98 4 148 28t50 136v914q0 111 -51 134t-147 27h-3h-3v66h614v-63q-14 -2 -28.5 -3.5t-28.5 -3.5q-27 -2 -51.5 -7t-47.5 -17q-25 -12 -35 -38t-12 -52q-2 -12 -2 -24v-21v-441l482 443q4 2 9 7t11 9q14 16 27.5 34.5t13.5 39.5q0 33 -26.5 48 t-57.5 21q-16 2 -31.5 3.5t-27.5 1.5v63h536v-61q-74 -2 -130 -22.5t-112 -63.5q-8 -6 -17 -14.5t-17 -16.5l-371 -340l522 -684q41 -55 98.5 -79t124.5 -24v-61h-598v63q16 -2 34 -1t34 4h3h1q6 0 13.5 1t13.5 1q16 2 30.5 9t14.5 23q0 12 -6 24.5t-15 22.5q-2 4 -5 8.5 t-5 6.5l-410 551l-139 -127v-359q0 -115 52.5 -138t146.5 -28h3h3v-61h-614z" />
<glyph unicode="L" horiz-adv-x="1169" d="M27 0v63q2 -2 3 -2h3q98 4 148 28t50 136v914q0 111 -51 134t-147 27h-3h-3v66h614v-63q-14 -2 -30.5 -3.5t-32.5 -3.5q-25 -2 -49.5 -8t-45.5 -16q-25 -12 -34 -38t-11 -52q-2 -12 -2 -24v-21v-887q0 -109 58.5 -145.5t156.5 -36.5q127 0 229.5 23.5t172.5 144.5 q18 35 34.5 73.5t24.5 77.5q2 8 3 16.5t1 16.5l60 2l-27 -422h-1122z" />
<glyph unicode="M" horiz-adv-x="1800" d="M29 0v63q111 2 157.5 52.5t46.5 158.5v48v788q0 125 -45 155.5t-159 34.5v66h426l311 -745q41 -88 72.5 -178.5t58.5 -180.5l4 12l4 13q2 4 4 10l4 12l437 1057h424v-63q-14 -2 -28.5 -3.5t-29.5 -3.5q-27 -2 -51.5 -7t-46.5 -17q-25 -12 -35 -38t-12 -52q-2 -12 -2 -24 v-21v-910v-23q0 -11 2 -22q0 -23 7 -44t21 -36q14 -14 37 -22t47 -12q18 -4 37 -5.5t33 -1.5l21 2v-63h-615v63q131 4 168 40t37 159v690q0 33 1 69t3 73q0 37 3 72.5t5 70.5q-8 -29 -17 -57.5t-20 -57.5q-6 -14 -11 -28.5t-11 -28.5l-445 -1065h-63l-403 971 q-12 29 -23.5 58.5t-22.5 60.5q-2 6 -5 12t-5 12q-8 25 -16 48.5t-19 47.5v-106v-733v-62q0 -113 30 -175t173 -73v-61h-489z" />
<glyph unicode="N" horiz-adv-x="1484" d="M27 0v63q115 2 159.5 53.5t44.5 166.5v856q0 111 -51 134t-147 27h-3h-3v66h405l670 -924q16 -27 31 -53l28 -53q4 -8 8.5 -17.5t8.5 -17.5v36v34q-2 16 -2 33v36v658q0 119 -32 147.5t-85 38.5q-16 2 -33.5 6t-38.5 10v66h471v-63q-109 -4 -152.5 -52.5t-43.5 -154.5 v-1108h-86l-730 1016q-37 47 -69.5 98t-63.5 104v-866q0 -127 30 -197.5t173 -81.5v-61h-489z" />
<glyph unicode="O" horiz-adv-x="1642" d="M94 680q0 317 207 517t518 200q313 0 520 -200t207 -517q0 -313 -208 -514t-519 -201q-309 0 -517 202t-208 513zM330 659q4 -236 109.5 -430t379.5 -194v2h6q266 0 371 189q106 191 113 421v18v17v19v20q-8 229 -113.5 419.5t-376.5 190.5q-268 0 -374.5 -190.5 t-114.5 -419.5v-20v-19v-12v-11z" />
<glyph unicode="P" horiz-adv-x="1097" d="M27 0v63q2 -2 3 -2h3q98 4 148 28t50 136v914q0 111 -51 134t-147 27h-3h-3v66h481q29 -2 58.5 -2t58.5 -2q178 -4 325.5 -67.5t147.5 -293.5q0 -94 -44 -175t-128 -128q-47 -27 -101.5 -37t-107.5 -12q-20 -2 -41 -2h-41l-199 2v-422q0 -117 50.5 -139t144.5 -27h5h5 v-61h-614zM436 713h158h7q134 0 204 80q72 82 72 217q0 164 -78 230.5t-236 66.5h-32q-15 0 -31 -2q-16 0 -31.5 -1t-32.5 -1v-590z" />
<glyph unicode="Q" horiz-adv-x="1640" d="M96 680q0 317 213 517t525 200q311 0 513.5 -200t202.5 -511q0 -227 -119.5 -409.5t-332.5 -266.5q-55 -20 -110.5 -42.5t-110.5 -43.5q-55 -23 -110.5 -44t-111.5 -44q16 2 31.5 3t32.5 1q14 2 31 2h30q139 0 253 -40t216 -89l74 -32q37 -16 72 -33q66 -27 131 -44.5 t135 -17.5q96 0 151.5 44t88.5 128q4 6 7 11.5t9 7.5q10 0 15 -7.5t5 -15.5q0 -96 -82.5 -174t-183.5 -115q-37 -14 -72.5 -21t-66.5 -7q-119 0 -224.5 57t-209.5 125q-8 6 -17.5 12.5t-17.5 12.5q-94 61 -189.5 109t-199.5 48q-39 0 -73 -12t-60 -27q-27 -14 -47.5 -26 t-32.5 -12q-18 0 -28.5 13t-14.5 30v6v4q0 10 7 16t15 10l1 1q1 1 3 1q14 4 27.5 9.5t28.5 9.5q84 31 166 66.5t157 78.5q-313 0 -520 197t-207 514zM334 655q4 -233 107.5 -426.5t377.5 -193.5q291 0 390.5 202.5t103.5 446.5v10v13v2v4q-2 231 -106.5 424.5t-375.5 193.5 q-289 0 -393 -201.5t-104 -451.5v-12v-11z" />
<glyph unicode="R" horiz-adv-x="1382" d="M27 0v63q2 -2 3 -2h3q98 4 148 28t50 136v914q0 111 -51 134t-147 27h-3h-3v66h581q33 -2 68 -3t69 -5q63 -8 125 -27.5t111 -56.5q59 -45 95 -110.5t36 -143.5q0 -158 -117.5 -251t-267.5 -97q123 -18 192.5 -82t129.5 -150q14 -23 30.5 -47t34.5 -51q8 -12 15.5 -23.5 t15.5 -23.5q4 -8 9 -16.5t11 -14.5q47 -76 106.5 -139.5t158.5 -63.5v-61h-312q-66 53 -118 133t-101 166q-2 4 -5 8t-5 8q-41 70 -83 137.5t-91 122.5q-33 37 -75 52.5t-89 15.5l-115 2v-418q0 -117 50.5 -139t144.5 -27h5h5v-61h-614zM436 713h178h8q142 0 203 75 q63 78 64 224q0 152 -82 220t-223 68l-148 3v-590z" />
<glyph unicode="S" horiz-adv-x="1042" d="M82 0v430h63v-5v-3q20 -139 125 -256t254 -117q115 0 207 60.5t92 189.5t-97 200.5t-222 131.5q-8 4 -18.5 8t-18.5 10q-135 63 -246.5 148.5t-111.5 251.5q0 160 114.5 254t265.5 94q84 0 163 -23.5t143 -77.5q10 14 18 29.5t16 32.5q2 4 5.5 9t5.5 11l49 2v-370h-62 q-23 131 -104.5 228t-228.5 97q-86 0 -157 -51t-71 -141q0 -104 81 -167t192 -116l41 -20l41 -21q133 -66 243.5 -159t110.5 -271t-112.5 -301t-297.5 -123q-106 0 -200.5 39t-174.5 109q-14 -27 -25 -56.5t-20 -56.5h-63z" />
<glyph unicode="T" horiz-adv-x="1316" d="M-6 1034l35 332h1257l35 -332h-59q-35 106 -89.5 184t-185.5 78l-229 2v-1071q0 -117 51 -139t143 -27h5h6v-61h-611v63q102 2 153.5 26t51.5 136v1073h-229q-131 -2 -185.5 -78.5t-87.5 -187.5z" />
<glyph unicode="U" horiz-adv-x="1429" d="M27 1300v64h614v-61q-8 -2 -15 -3h-14h-4h-4q-63 -2 -115.5 -25.5t-52.5 -139.5v-654q0 -195 55.5 -320.5t284.5 -125.5q213 0 275.5 123t62.5 303v20v643q0 111 -51 139.5t-154 36.5v64h494v-61q-2 -2 -5 -3h-7q-12 -2 -24.5 -3t-25.5 -3q-27 -2 -51 -8t-45 -18 q-25 -14 -35 -40t-12 -54q-2 -12 -2 -26v-26v-657q0 -219 -85 -359.5t-335 -140.5q-285 0 -415 89t-130 401v682q0 113 -50 136t-148 27h-3h-3z" />
<glyph unicode="V" horiz-adv-x="1480" d="M-8 1366h563v-63h-45q-10 -2 -21.5 -2.5t-23.5 -2.5q-27 -4 -50.5 -17t-23.5 -44q0 -18 5 -36.5t14 -37.5l327 -780q16 -41 30.5 -81t27.5 -81l4 12l4 13q2 4 4 10l4 12l360 897q4 6 7 15l4 16q2 6 3 14.5t1 16.5q0 39 -28 54t-62 17q-10 2 -21 2h-18l-41 3v63h471v-63 l-19 -3q-82 -10 -126 -34.5t-76 -102.5l-492 -1186h-74l-518 1188q-27 61 -73 98t-115 37z" />
<glyph unicode="W" horiz-adv-x="1937" d="M-8 1366h551v-63h-31q-10 -2 -23.5 -3.5t-25.5 -3.5q-29 -6 -53.5 -20t-24.5 -45q0 -6 1 -11.5t3 -11.5q0 -4 1 -7t1 -5q2 -4 3 -7t1 -5l199 -699q10 -31 17 -60.5t14 -59.5l4 -21l4 -20q2 -8 4 -19l4 -20l332 1081h63l271 -786q20 -55 38.5 -110.5t32.5 -111.5l8 -36 l9 -37q6 33 14 62.5t16 60.5q0 4 1 8t4 8q2 10 6 21.5t6 23.5l196 670q6 18 11.5 38.5t5.5 41.5q0 47 -37 62t-82 17q-10 0 -21.5 1t-21.5 1h-10h-8v66h469v-63q-78 -4 -133.5 -28t-79.5 -108l-351 -1190h-73l-361 1037l-319 -1037h-84l-363 1192q-20 63 -70.5 97t-115.5 34 z" />
<glyph unicode="X" horiz-adv-x="1454" d="M0 0v63q6 -2 13 -2h14q72 4 139 31t113 86l370 496l-356 514q-45 66 -99.5 88t-134.5 24v66h590v-63h-37q-8 -2 -20 -2.5t-25 -2.5q-23 -4 -40 -13t-17 -30q0 -14 6 -28.5t14 -28.5q2 -2 4.5 -5t4.5 -7l235 -342l262 344q10 10 17.5 25.5t7.5 31.5q0 29 -26.5 40 t-59.5 13q-12 2 -24 2h-21l-31 3v63h504v-63q-82 -8 -150.5 -27t-122.5 -90l-307 -412l400 -594q43 -66 100 -90t131 -29v-61h-596v63h41q8 -2 19.5 -2t23.5 2q23 2 43.5 12.5t20.5 37.5q0 18 -8.5 34.5t-18.5 30.5l-287 426l-321 -424q-8 -12 -15.5 -24.5t-11.5 -26.5 q0 -33 28.5 -46t63.5 -17q16 -2 31.5 -3.5t28.5 -1.5h7h5v-61h-508z" />
<glyph unicode="Y" horiz-adv-x="1357" d="M-6 1366h586v-63h-52q-8 -2 -18 -2.5t-21 -2.5q-23 -4 -41 -14t-18 -35q0 -12 4 -25.5t10 -23.5q0 -4 2.5 -6t2.5 -4l292 -502l306 504q2 0 3 2t1 4q6 10 10 21.5t4 23.5q0 39 -56.5 48t-131.5 9v66h489v-63q-82 -6 -140.5 -34t-101.5 -100l-344 -561v-381 q0 -115 55.5 -138t149.5 -28v-61h-610v63q102 2 153.5 26t51.5 136v383l-375 584q-39 61 -89 83.5t-120 24.5z" />
<glyph unicode="Z" horiz-adv-x="1208" d="M20 0v33l865 1255h-443q-127 -2 -195.5 -74.5t-99.5 -187.5l-67 2l39 338h1038v-29l-864 -1259h506h7q142 0 209 76q69 78 107 208v3h66l-31 -365h-1137z" />
<glyph unicode="[" horiz-adv-x="563" d="M193 -563v1929h348v-68h-195v-1794h195v-67h-348z" />
<glyph unicode="\" horiz-adv-x="471" d="M-154 1366h101l682 -1929h-101z" />
<glyph unicode="]" horiz-adv-x="563" d="M23 -496h194v1794h-194v68h348v-1929h-348v67z" />
<glyph unicode="^" horiz-adv-x="1024" d="M-53 582l571 852h14l545 -852h-88l-397 614l-412 -614h-233z" />
<glyph unicode="_" horiz-adv-x="1024" d="M41 -182h942v-101h-942v101z" />
<glyph unicode="`" horiz-adv-x="1024" d="M319 1227q0 8 5.5 11t11.5 5h4h4l252 2l106 -254q2 -4 3 -7v-5q0 -6 -4.5 -9t-10.5 -5h-5h-5q-6 2 -12 5t-13 5l-323 235q-4 2 -8.5 6.5t-4.5 10.5z" />
<glyph unicode="a" horiz-adv-x="925" d="M82 186q0 160 102.5 210t227.5 79q43 10 87 21.5t83 27.5v72q0 88 -26 150.5t-134 62.5q-68 0 -93.5 -32t-39.5 -68q-2 -4 -3 -7.5t-1 -7.5q-12 -33 -30.5 -60.5t-68.5 -27.5q-6 0 -12 1t-10 1q-27 6 -47.5 22.5t-20.5 43.5q0 72 61.5 116t137.5 64q35 10 69.5 14t61.5 4 q137 0 231.5 -53t94.5 -207v-448v-14q0 -6 2 -13q2 -23 12 -43t39 -22q39 0 56.5 26.5t25.5 59.5q0 2 1 3t1 3q2 4 3 7t1 7v2h61q-20 -80 -67 -141.5t-137 -61.5q-70 0 -114 37t-54 107q-47 -53 -117 -91t-141 -48q-10 0 -20.5 -1t-20.5 -1q-92 0 -146.5 58t-54.5 148z M252 244q0 -63 39 -106.5t104 -43.5q53 0 100.5 25.5t86.5 58.5v289q-18 -10 -39 -17.5t-43 -13.5q-12 -4 -23.5 -7t-23.5 -7q-74 -23 -134.5 -59.5t-66.5 -118.5z" />
<glyph unicode="b" horiz-adv-x="1107" d="M29 1300v66q53 6 103 14.5t101 18.5q27 4 52.5 10t50.5 12v-669q49 57 119.5 87.5t148.5 32.5h6h8q197 0 302.5 -130t105.5 -316q0 -188 -116.5 -318.5t-311.5 -130.5q-82 0 -154.5 26t-140.5 69q-20 -16 -36.5 -39t-28.5 -45l-72 12v1139q0 72 -29.5 115.5t-107.5 45.5z M336 215q41 -72 104.5 -115t145.5 -43q121 0 179 86t71 189q4 20 5 39.5t1 38.5q0 20 -1 42.5t-3 45.5q-10 104 -62.5 193t-179.5 89q-82 0 -154.5 -34.5t-105.5 -112.5v-418z" />
<glyph unicode="c" horiz-adv-x="884" d="M82 395q0 193 111.5 334t316.5 141q25 0 57.5 -4t65.5 -14q63 -18 116.5 -54t53.5 -93q0 -33 -22.5 -55.5t-57.5 -22.5q-20 0 -37.5 7t-34.5 19q-6 72 -36.5 110t-108.5 38q-104 0 -156.5 -77t-68.5 -169q-4 -27 -6.5 -52.5t-2.5 -49.5q0 -25 2 -50.5t7 -52.5 q18 -109 80.5 -200t185.5 -91q86 0 141 42t94 118v2l62 -20q-39 -111 -122 -165t-198 -59q-186 0 -314 111.5t-128 306.5z" />
<glyph unicode="d" horiz-adv-x="1107" d="M82 426q0 186 105.5 316t301.5 130h9h6q78 -2 148.5 -32.5t119.5 -89.5v2v387q0 72 -29.5 115.5t-107.5 45.5v66q78 8 154.5 22.5t152.5 32.5v-1194q0 -76 32 -120t107 -46v-61q-63 0 -124.5 -3t-122.5 -7q-10 18 -17.5 38.5t-11.5 43.5q-68 -43 -140.5 -69t-154.5 -26 q-195 0 -311.5 130.5t-116.5 318.5zM266 410q0 -18 1 -36t3 -36q12 -104 70.5 -192.5t181.5 -88.5q82 0 146.5 43t103.5 113v2v420q-33 76 -105.5 110.5t-154.5 34.5q-125 0 -177 -87t-65 -191q-2 -23 -3 -46t-1 -46z" />
<glyph unicode="e" horiz-adv-x="929" d="M82 414q0 182 108.5 320t303.5 138q174 0 266 -129t92 -288v2h-584q0 -25 1 -48.5t3 -46.5q10 -117 65.5 -213t192.5 -96q90 0 151.5 43t111.5 113l59 -31q-61 -98 -149.5 -149.5t-202.5 -51.5q-193 0 -305.5 125.5t-112.5 311.5zM270 526l400 2v2q0 2 2 7v5v5 q0 94 -38 172t-151 78q-106 0 -155 -78t-56 -170q-2 -6 -2 -11v-12z" />
<glyph unicode="f" horiz-adv-x="542" d="M27 791v61h143v59q0 31 2 62q8 154 68.5 282.5t265.5 128.5q10 0 20.5 -1t22.5 -3q53 -8 99 -41.5t46 -95.5q0 -33 -22.5 -58.5t-57.5 -25.5q-47 0 -60 24.5t-17 53.5q-2 2 -2 4v2q-4 29 -13.5 50.5t-46.5 21.5q-66 0 -94.5 -46t-36.5 -104q-2 -16 -3 -32.5t-1 -32.5 v-248h184v-61h-184v-564q0 -104 42 -134t136 -34v-59h-485v63q82 0 109.5 43.5t27.5 118.5v566h-143z" />
<glyph unicode="g" horiz-adv-x="964" d="M27 -248q0 90 72.5 150.5t160.5 62.5h3h3h8q4 0 11 -2q4 0 8 -1t8 -1l-20 -16q-10 -8 -19 -17q-39 -31 -65.5 -66.5t-26.5 -92.5q0 -94 69.5 -144.5t153.5 -64.5q18 -4 35.5 -5t34.5 -1q20 0 40.5 2t41.5 6q86 14 156.5 65t70.5 148q0 84 -60.5 120.5t-133.5 43.5 q-10 0 -23.5 1t-28.5 3q-33 2 -71.5 4t-77.5 6q-100 12 -182 51t-82 139q0 59 46 96t99 50q12 4 22.5 6t20.5 2q-88 29 -138 97.5t-50 160.5q0 145 94 231t237 86q12 0 23.5 -1t24.5 -1q59 -8 115.5 -31.5t94.5 -70.5q35 41 85.5 71.5t103.5 32.5h11q5 0 11 -2 q29 -4 53.5 -23.5t24.5 -51.5q0 -31 -18.5 -54.5t-50.5 -23.5q-18 0 -31.5 9t-26.5 22q-12 10 -25.5 19t-31.5 9q-23 0 -42.5 -11t-35.5 -28v2q16 -31 27.5 -63.5t15.5 -67.5q0 -12 1 -23.5t1 -21.5q0 -127 -83 -207t-208 -88q-18 0 -54 -2t-75 -10q-51 -6 -94 -23.5 t-47 -50.5q0 -23 16.5 -31t34.5 -10h15h12q78 0 154.5 -4t152.5 -8q127 -10 218 -65.5t91 -200.5q0 -193 -141 -293t-317 -100q-33 0 -71 5t-77 13q-102 27 -188 91t-86 173zM279 549q0 -12 1 -26.5t3 -28.5q8 -68 42.5 -124.5t112.5 -56.5q82 0 121 59.5t49 133.5 q2 14 3 28.5t1 28.5v2v26q0 13 -2 27q-6 76 -39.5 138.5t-124.5 62.5q-82 0 -116.5 -58.5t-44.5 -127.5q-4 -23 -5 -43.5t-1 -40.5z" />
<glyph unicode="h" horiz-adv-x="1064" d="M29 0v63q82 0 109.5 43.5t27.5 118.5v914q0 72 -30 115.5t-107 45.5v66q53 6 103 14.5t101 18.5q27 4 52.5 9t50.5 11v-659q68 47 142.5 79.5t160.5 32.5q135 0 199.5 -77.5t64.5 -204.5v-363q0 -78 26.5 -121t108.5 -45v-61h-442v63q82 0 108.5 43.5t26.5 118.5v363 q0 82 -43 132t-133 50q-63 0 -117.5 -26.5t-101.5 -67.5v-449q0 -78 27.5 -121t109.5 -45v-61h-444z" />
<glyph unicode="i" horiz-adv-x="497" d="M27 0v63q82 0 109.5 43.5t27.5 118.5v355q0 74 -30 117.5t-107 45.5v64q53 6 103 14t101 19q27 6 52.5 11t50.5 11v2v-637q0 -78 27.5 -121t109.5 -45v-61h-444zM143 1106q0 45 33 73.5t76 28.5q41 0 71.5 -30.5t30.5 -71.5t-30.5 -71.5t-71.5 -30.5v2q-3 0 -6 -1 q-40 0 -70 28q-33 30 -33 73z" />
<glyph unicode="j" horiz-adv-x="466" d="M-188 -446q0 29 21.5 50t49.5 21q25 0 42.5 -15.5t33.5 -33.5q0 -2 1 -3l1 -1q16 -20 34.5 -36.5t47.5 -16.5q63 0 88 47t31 102q2 25 2 47v41v824q0 74 -30 117.5t-107 45.5v64q78 8 154.5 23.5t152.5 31.5v2v-1059q0 -152 -86 -260t-248 -108q-14 0 -34.5 3t-41.5 9 q-43 12 -77.5 38t-34.5 67zM147 1106q0 45 33 73.5t76 28.5q41 0 71.5 -30.5t30.5 -71.5t-30.5 -71.5t-71.5 -30.5v2q-3 0 -6 -1q-40 0 -70 27q-33 29 -33 74z" />
<glyph unicode="k" horiz-adv-x="995" d="M27 0v63q82 0 109.5 43.5t27.5 118.5v914q0 72 -30 115.5t-107 45.5v66q53 6 103 14.5t101 18.5q27 4 52.5 9t50.5 11v-927l270 213q10 6 16.5 16t8.5 22q0 27 -18.5 34t-39.5 7h-3h-3h-5q-3 0 -5 2h-5h-5v64h356v-62q-57 -8 -108.5 -28.5t-96.5 -57.5l-196 -163 l317 -369q35 -43 80 -70.5t98 -38.5v-61h-391v63h39q16 -2 29.5 4.5t13.5 22.5q0 2 -2 5t-4 5q-4 4 -7 8.5t-7 8.5q-2 0 -3 2t-4 2l-280 323l-45 -38v-179q0 -78 27.5 -121t109.5 -45v-61h-444z" />
<glyph unicode="l" horiz-adv-x="497" d="M27 0v63q82 0 109.5 43.5t27.5 118.5v914q0 72 -30 115.5t-107 45.5v66q53 6 103 14.5t101 18.5q27 4 52.5 9t50.5 11v-1192q0 -78 27.5 -121t109.5 -45v-61h-444z" />
<glyph unicode="m" horiz-adv-x="1626" d="M29 0v63q82 0 109.5 43.5t27.5 118.5v355q0 74 -30 117.5t-107 45.5v64q72 8 141.5 21.5t138.5 33.5v2q4 -10 7 -17t6 -16q8 -23 11 -46t3 -48q68 61 145.5 98t169.5 37q72 0 137.5 -33.5t92.5 -101.5q66 57 145.5 96t167.5 39q152 0 210 -76.5t58 -215.5v-353 q0 -78 28 -121t109 -45v-61h-444v63q84 0 110.5 43.5t26.5 118.5v330q0 88 -28.5 150.5t-149.5 62.5h-15q-7 0 -14 -2q-51 -6 -100 -33.5t-84 -64.5v-72v-369q0 -78 26.5 -121t108.5 -45v-61h-442v63q82 0 108.5 43.5t26.5 118.5v346q0 88 -39 142.5t-137 54.5 q-63 0 -116.5 -29.5t-100.5 -70.5v-441q0 -78 27.5 -121t109.5 -45v-61h-444z" />
<glyph unicode="n" horiz-adv-x="1062" d="M27 0v63q82 0 109.5 43.5t27.5 118.5v355q0 74 -30 117.5t-107 45.5v64q72 8 141.5 21.5t138.5 33.5v2q4 -10 7 -17t5 -16q8 -23 11.5 -46t3.5 -48q68 61 145.5 98t169.5 37q137 0 193.5 -76.5t56.5 -201.5v-367q0 -78 26.5 -121t108.5 -45v-61h-442v63q82 0 108.5 43.5 t26.5 118.5v346q0 88 -39 142.5t-137 54.5q-63 0 -116.5 -29.5t-100.5 -70.5v-441q0 -78 27.5 -121t109.5 -45v-61h-444z" />
<glyph unicode="o" horiz-adv-x="1046" d="M82 412q0 205 117.5 332.5t328.5 127.5t324 -123.5t113 -328.5v2q0 -199 -122 -322t-321 -123q-201 0 -320.5 115t-119.5 320zM266 403q0 -18 1 -35.5t3 -35.5q10 -111 65.5 -204t186.5 -93q129 0 185.5 92t68.5 203q2 23 3 44t1 42v2q0 20 -1 41.5t-1 44.5 q-10 117 -60 212t-194 95q-137 0 -190 -96.5t-64 -210.5q-2 -25 -3 -50.5t-1 -50.5z" />
<glyph unicode="p" horiz-adv-x="1081" d="M27 -483q82 2 109.5 44t27.5 120v899q0 72 -30 116.5t-107 46.5v64q72 8 141.5 21.5t138.5 33.5q16 -27 21.5 -55.5t5.5 -61.5q53 57 127 91t151 34q186 0 286.5 -132t100.5 -306q0 -176 -102 -315.5t-295 -139.5h-11h-11q-66 4 -130.5 27t-115.5 66v2v-391 q0 -104 43 -133t135 -33v-62h-485v64zM334 166q45 -47 100 -76t119 -33q127 0 185.5 92.5t72.5 202.5q4 23 5 45.5t1 42.5t-1 43t-5 45q-14 98 -66.5 179t-164.5 81q-82 0 -143.5 -51t-102.5 -116v-455z" />
<glyph unicode="q" horiz-adv-x="1073" d="M82 406q0 180 109.5 322t302.5 142h11h11q59 -4 117.5 -26.5t105.5 -63.5q45 16 88 37t82 45v2v-1183q0 -78 28 -120t110 -44v-64h-486v62q94 4 136 33.5t42 132.5v403q-55 -53 -125.5 -80t-144.5 -27q-184 0 -285.5 128.5t-101.5 300.5zM264 399q0 -14 1 -29.5t3 -29.5 q10 -104 66.5 -191.5t177.5 -87.5q61 0 111.5 25t99.5 57q4 4 8 7.5t8 5.5v512q-43 49 -99 81.5t-126 32.5q-113 0 -168 -83t-72 -183q-6 -31 -8 -60.5t-2 -56.5z" />
<glyph unicode="r" horiz-adv-x="698" d="M27 0v63q82 0 109.5 43.5t27.5 118.5v355q0 74 -30 117.5t-107 45.5v64q72 8 141.5 21.5t138.5 33.5q20 -37 23.5 -74.5t3.5 -78.5q43 57 105.5 103t138.5 46q47 0 83.5 -28.5t36.5 -77.5v-6v-5q-4 -27 -23.5 -49t-47.5 -24q-23 0 -38.5 12t-29.5 27v2q-14 14 -28.5 25 t-36.5 11q-49 0 -93.5 -30.5t-66.5 -71.5v2v-418q0 -96 27.5 -122.5t105.5 -43.5q4 0 8 -1t8 -1v-59h-456z" />
<glyph unicode="s" horiz-adv-x="708" d="M70 0v293h49q12 -96 77.5 -168t168.5 -72q57 0 101 34t44 93q0 66 -52 105t-120 73q-12 6 -23.5 11.5t-21.5 11.5q-82 41 -149.5 96t-67.5 156q0 106 61.5 172.5t169.5 66.5q63 0 113.5 -26.5t91.5 -71.5l39 76h47v-281h-47q-2 4 -3 11.5t-3 13.5q-23 76 -77 140.5 t-144 64.5q-51 0 -85 -32t-34 -85q0 -55 45 -89t108 -65q16 -8 33 -15t33 -15q80 -39 148.5 -96.5t68.5 -165.5q0 -115 -69.5 -187t-184.5 -72h-16q-8 0 -17 3q-55 6 -107 28.5t-93 59.5l-35 -68h-49z" />
<glyph unicode="t" horiz-adv-x="528" d="M27 791v45q84 10 129 78.5t61 146.5q6 25 8 49.5t2 46.5l70 2v-303h227v-65h-227v-529q0 -14 1 -27.5t3 -25.5q6 -43 28.5 -79t67.5 -36q43 0 74 22.5t57 51.5l8 7l7 7l41 -32q-41 -66 -104.5 -112t-145.5 -46q-125 0 -166 81t-41 187v531h-100z" />
<glyph unicode="u" horiz-adv-x="1062" d="M27 809v65h307v-593q0 -92 40 -146.5t138 -54.5q66 0 118 29.5t99 70.5v467q0 76 -27.5 118t-109.5 44v65h307v-647q0 -76 29.5 -120t107.5 -46v-61q-70 0 -140.5 -3t-139.5 -7q-4 10 -7.5 19t-7.5 20q-6 20 -9 40.5t-3 41.5q-68 -61 -145.5 -97.5t-171.5 -36.5 q-96 0 -170 54.5t-78 156.5v66v393q0 76 -27.5 118t-109.5 44z" />
<glyph unicode="v" horiz-adv-x="954" d="M-6 850h387v-62q-6 -4 -14.5 -5t-16.5 -3h-2q-16 0 -31.5 -5t-17.5 -25q0 -8 1 -15.5t5 -13.5q2 -8 5 -15.5t5 -15.5l207 -475l221 492q4 8 6.5 17t4.5 17q0 20 -15.5 29.5t-33.5 11.5q-4 0 -10.5 1t-10.5 1l-20 4v62h297v-62q-10 -2 -21.5 -3t-21.5 -3q-27 -4 -49.5 -16 t-32.5 -35l-336 -731h-54l-340 733q-16 33 -46.5 43t-63.5 10z" />
<glyph unicode="w" horiz-adv-x="1368" d="M-8 850h377v-62q-6 -4 -14.5 -6t-18.5 -2h-2q-18 -2 -32.5 -6t-18.5 -24q0 -10 3 -21.5t5 -21.5l164 -478l233 621h70l219 -621l190 480l1 2l3 6q2 6 4.5 14t2.5 17v4q0 14 -16.5 21t-35.5 9q-10 2 -20 3t-19 1h-1h-3v64h289v-62q-43 -4 -77.5 -21t-51.5 -60l-282 -707 h-70l-217 614l-236 -614h-69l-258 709q-14 37 -39 50t-60 21q-4 2 -8 3t-10 3z" />
<glyph unicode="x" horiz-adv-x="1052" d="M25 0v63h12q40 0 76 12q41 13 73 48l265 287l-250 311l-14 13l-13 14q-27 23 -55.5 30.5t-69.5 7.5v64h402v-62h-21q-2 -2 -5 -2h-7q-2 0 -5 -1t-7 -1q-8 0 -17.5 -3t-11.5 -11q0 -10 4 -18.5t12 -16.5l168 -205l191 207q6 2 11 9.5t5 15.5q0 10 -10 15t-23 5q-8 2 -14 2 h-10h-10q-5 0 -9 2h-11h-9v64h334v-62q-43 -2 -83 -11t-71 -42l-244 -264l269 -346q31 -41 69.5 -52.5t87.5 -11.5v-61h-426v63h47q2 -2 5 -2h6q2 0 5 1t7 1q10 0 18.5 3.5t8.5 13.5q0 12 -6.5 23.5t-16.5 19.5l-188 229l-209 -227q-10 -14 -16.5 -23.5t-6.5 -17.5 q0 -12 14.5 -17.5t40.5 -5.5l27 2v-63h-319z" />
<glyph unicode="y" horiz-adv-x="954" d="M-6 850h393v-62q-8 -2 -17.5 -2t-19.5 -2q-18 -2 -34.5 -11t-16.5 -30q0 -8 3 -17t5 -19l221 -478l215 480l4.5 9t4.5 11t4 11t2 12v4q0 14 -14.5 20t-30.5 8q-6 0 -12.5 1t-12.5 1h-5h-5l-14 2v62h299v-62l-21 -2q-45 -6 -71.5 -22t-47.5 -57l-436 -953 q-12 -27 -25.5 -58.5t-29.5 -64.5q-37 -72 -88 -132t-125 -60h-7h-8q-33 4 -59.5 23.5t-26.5 56.5q0 12 3.5 23.5t11.5 21.5q4 0 8 -1t8 -1q2 0 6 -1t8 -1q98 0 167 84t120 186q27 53 49.5 105.5t40.5 89.5l-319 684q-20 39 -51 57t-74 20z" />
<glyph unicode="z" horiz-adv-x="802" d="M27 0v68l526 723h-295q-55 -2 -81.5 -39t-47.5 -82l-1 -2q-1 -2 -1 -4q-6 -14 -14.5 -30t-16.5 -30l-55 2l29 248h688v-63l-527 -723h285h6q66 0 106 47q42 49 68 108q6 14 12.5 29.5t12.5 30.5v2h53l-16 -285h-731z" />
<glyph unicode="{" horiz-adv-x="1024" d="M213 618v3v32q86 2 140.5 34t54.5 128q0 31 -1 60.5t-1 60.5t-1.5 60.5t-1.5 60.5q0 190 42 293.5t255 109.5l84 2q10 -2 19.5 -2t17.5 2v-45q-125 -4 -193.5 -46t-70.5 -181v-73v-73q-2 -37 -2 -72v-73q0 -94 -24.5 -164.5t-141.5 -95.5v-6q115 -23 140.5 -101.5 t25.5 -173.5v-72v-73q-2 -37 -2 -73v-72q0 -154 58.5 -211.5t209.5 -57.5v-47h-30h-5h-6q-162 4 -270.5 41t-108.5 242q0 51 1 102t1 103q0 16 1.5 33.5t1.5 33.5q0 35 1 69t1 68q-2 104 -52.5 136t-142.5 38z" />
<glyph unicode="|" horiz-adv-x="1024" d="M449 -342v1706h129v-1706h-129z" />
<glyph unicode="}" horiz-adv-x="1024" d="M203 -201q129 0 195.5 44t68.5 182v93q0 46 2 93v93v93q2 90 36 153.5t130 80.5v10q-80 14 -122 65.5t-44 133.5v123q0 61 -2 122q0 174 -39 250t-225 80v49q10 -4 19 -4h18q201 0 291 -47t90 -293q0 -37 -1.5 -74.5t-1.5 -74.5t-1 -75t-1 -75q0 -100 52.5 -132 t142.5 -38v2v-32q-88 -8 -141.5 -39t-53.5 -131q0 -35 1 -70t1 -70q0 -16 1.5 -33.5t1.5 -33.5q0 -53 1 -104.5t1 -104.5q0 -160 -71 -218.5t-224 -62.5h-31q-16 0 -31 -2h-32h-31v47z" />
<glyph unicode="~" horiz-adv-x="1024" d="M53 600q4 4 7 9t8 9q51 70 121.5 127.5t160.5 57.5q49 0 95.5 -12.5t93.5 -28.5q2 0 5 -1t7 -3q43 -14 86 -25.5t88 -11.5q61 0 115.5 30.5t93.5 75.5v2l37 -18q-47 -78 -125 -141.5t-174 -63.5q-41 0 -81 9.5t-79 21.5q-8 4 -16 6l-17 4q-47 16 -95 29.5t-99 13.5 q-55 0 -93 -24.5t-73 -59.5l-14 -13l-15 -15z" />
<glyph unicode="&#xa0;" />
<glyph unicode="&#xa1;" horiz-adv-x="505" d="M137 -270q0 80 12.5 166t28.5 172q6 35 11.5 69.5t11.5 69.5q6 45 10 89t6 87v2h74q2 -41 5 -79t9 -77q4 -41 11.5 -82t13.5 -81q16 -86 28.5 -171t12.5 -165q0 -20 -2 -56t-9 -75q-10 -57 -34.5 -104.5t-71.5 -47.5q-53 0 -77.5 49t-33.5 107q-4 37 -5 70.5t-1 56.5z M139 758q0 47 34 80.5t81 33.5v2q47 -2 80 -35.5t33 -80.5t-33 -81t-80 -34t-81 34t-34 81z" />
<glyph unicode="&#xa2;" horiz-adv-x="956" d="M94 668q0 23 2 46t6 46q25 141 119 259t248 122v205h70v-203q23 -2 50 -6t56 -13q61 -16 111.5 -53t56.5 -94q0 -33 -22.5 -57.5t-57.5 -24.5q-20 0 -38.5 7t-35.5 20q0 61 -30.5 93t-89.5 46v2v-737q2 -2 4 -2h4q0 -2 2 -2h4q84 0 149.5 42t92.5 123l67 -18 q-23 -96 -104.5 -155.5t-173.5 -71.5q-10 -2 -22.5 -3t-22.5 -1v-218h-70v220q-178 14 -276.5 133t-98.5 295zM283 721q0 -20 1 -42t5 -44q12 -90 54 -173t126 -124v725q-80 -20 -121 -88t-55 -146q-6 -29 -8 -56t-2 -52z" />
<glyph unicode="&#xa3;" horiz-adv-x="956" d="M-63 92q0 55 41.5 89t93.5 42q8 2 17 3t17 1q51 0 100.5 -10t96.5 -24q14 27 22.5 55t10.5 59q4 37 5 74t3 74q2 35 2 71v74l-217 2v55h219q0 57 4 129t17 146q29 174 114.5 319.5t278.5 145.5q102 0 175 -56.5t73 -164.5q0 -78 -51.5 -134.5t-133.5 -56.5h-5q-3 0 -7 2 h-5h-7q35 37 53 81t18 95v3v3q-2 63 -43 115.5t-106 52.5q-72 0 -111 -53t-49 -117q0 -2 -1 -5t-1 -5q-8 -70 -13 -141.5t-7 -145.5q-2 -53 -3 -107t-1 -108l235 2v-55h-242q-6 -119 -37.5 -231.5t-105.5 -206.5q66 -20 130.5 -31.5t131.5 -11.5q23 0 50.5 3t54.5 11 q72 18 130 61.5t60 114.5l25 2q2 -10 3 -17t1 -13q2 -8 2 -16v-15q0 -14 -2 -29l-4 -28q-18 -88 -82 -159t-156 -71q-106 0 -202.5 42t-184.5 97q-51 -55 -115.5 -91t-142.5 -36q-6 0 -13 1.5t-16 1.5q-45 6 -82.5 34.5t-37.5 77.5zM35 100q0 -27 20.5 -46t48.5 -19 q51 0 92.5 30.5t71.5 67.5q0 2 1 3l3 3v2q-33 14 -68.5 23.5t-74.5 9.5h-9q-5 0 -9 -2q-29 -4 -52.5 -21.5t-23.5 -50.5z" />
<glyph unicode="&#xa4;" horiz-adv-x="1366" d="M115 1196l67 68l191 -191q68 49 147.5 77t161.5 28q86 0 162 -31t145 -76l195 195l67 -68l-194 -197q10 -18 19 -34.5t18 -32.5q29 -55 46 -113.5t17 -128.5q0 -82 -29.5 -153.5t-72.5 -141.5l194 -192l-67 -70l-193 195q-70 -47 -145.5 -78t-161.5 -31q-84 0 -158.5 29 t-144.5 74l-191 -189l-69 70l188 188q-8 12 -16 25.5t-17 27.5q-33 59 -52 121t-19 133q0 82 30.5 158t69.5 146zM344 698q0 -137 100.5 -237.5t237.5 -100.5q139 0 238.5 100.5t99.5 237.5v2q0 137 -99.5 237.5t-238.5 100.5q-137 0 -237.5 -100.5t-100.5 -239.5z" />
<glyph unicode="&#xa5;" horiz-adv-x="1189" d="M0 1325v41h483v-39h-61q-8 -2 -16.5 -2t-18.5 -2q-18 -2 -34.5 -10t-20.5 -27q0 -20 8 -38.5t16 -35.5q2 -4 4 -7t5 -7l292 -545l265 480q2 2 4 6l4 8q14 25 25.5 52.5t11.5 53.5q0 35 -27 49.5t-59 18.5q-14 2 -28.5 3t-27.5 1v41h365v-39q-78 -8 -120 -62.5t-75 -117.5 q-4 -4 -6 -9l-4 -10l-149 -282h264v-62h-293l-121 -190v-45h414v-64h-414v-282q0 -86 18.5 -126t114.5 -40l68 2v-39h-570v39h72q96 -2 112.5 38t16.5 124v284h-409v64h409v20l-129 215h-280v62h249l-155 311q-8 16 -16.5 31.5t-16.5 30.5q-27 49 -61.5 75.5t-108.5 30.5z " />
<glyph unicode="&#xa6;" />
<glyph unicode="&#xa7;" horiz-adv-x="1132" d="M231 592q0 86 47.5 162.5t104.5 136.5q-45 43 -83 100.5t-38 122.5q0 133 101.5 208t224.5 75q25 0 52.5 -5.5t55.5 -15.5q72 -25 130.5 -76t58.5 -120v-10q0 -5 -2 -9q-4 -23 -19.5 -42t-40.5 -21l-2 2q-25 -2 -40 16.5t-29 46.5l-10 19q-5 10 -11 20q-20 39 -52 72 t-95 33q-10 0 -19.5 -1t-19.5 -3q-51 -10 -95 -45t-44 -93q0 -59 48 -108t115 -96l49 -33l50 -33q100 -66 182 -144.5t82 -191.5q0 -84 -39 -157.5t-90 -139.5v2q49 -51 85 -108.5t36 -128.5q0 -137 -106.5 -232.5t-242.5 -95.5q-12 0 -25 1t-28 3q-104 16 -192 90t-88 187 q0 27 15 47t46 22q31 0 47.5 -22.5t30.5 -51.5q4 -12 9 -24t11 -25q20 -47 60.5 -86t122.5 -39q74 0 133 48.5t59 125.5q0 57 -47 103.5t-115 91.5q-27 18 -54.5 35.5t-55.5 34.5q-102 66 -187.5 147.5t-85.5 204.5zM369 672q0 -76 66.5 -140.5t148.5 -115.5 q45 -31 89 -57.5t75 -49.5q6 14 12 27.5t12 25.5q10 27 17.5 54.5t7.5 58.5q0 80 -65.5 145.5t-145.5 118.5q-41 29 -80 54.5t-70 48.5v2q-27 -39 -47 -82t-20 -90z" />
<glyph unicode="&#xa8;" horiz-adv-x="1024" d="M201 1090v2q0 49 35.5 84.5t87.5 35.5q51 0 86.5 -35.5t35.5 -86.5t-35.5 -87t-86.5 -36t-87 36t-36 87zM575 1090v2q0 49 37 84.5t86 35.5q51 0 87 -35.5t36 -86.5t-35.5 -87t-87.5 -36q-49 0 -86 36t-37 87z" />
<glyph unicode="&#xa9;" horiz-adv-x="1646" d="M113 682q0 293 208.5 501t501.5 208t501 -208t208 -501t-208 -501t-501 -208t-501.5 208t-208.5 501zM182 682q0 -264 188.5 -452.5t452.5 -188.5v2q264 -2 452.5 186.5t188.5 452.5t-188.5 452.5t-452.5 188.5t-452.5 -188.5t-188.5 -452.5zM453 668q0 170 108.5 284.5 t276.5 114.5q33 0 61.5 -8t54.5 -17q27 -10 49.5 -18t43.5 -8q14 0 21 10t13 21q0 4 1 6t3 4q0 2 1 5t4 5l34 6v-239h-34q-23 78 -83.5 131t-144.5 53q-127 0 -186.5 -93.5t-65.5 -203.5q-2 -10 -2 -20v-17q0 -125 54.5 -228.5t199.5 -103.5q90 0 159 52.5t116 121.5v-75 q-53 -72 -130 -113t-167 -41q-164 0 -275.5 101.5t-111.5 269.5z" />
<glyph unicode="&#xaa;" horiz-adv-x="659" d="M61 616v64h580v-64h-580zM74 924q0 68 61.5 111.5t134.5 70.5q41 16 80 26.5t68 16.5v92q0 47 -30 71.5t-79 24.5q-8 0 -23.5 -2t-33.5 -6q-25 -8 -44.5 -19.5t-19.5 -27.5q0 -6 2.5 -12t6.5 -15l1 -2q1 -2 1 -4q4 -6 7 -14t3 -18q0 -23 -17.5 -39.5t-39.5 -16.5 q-27 0 -43.5 20.5t-16.5 45.5q0 51 43 85t94 48q25 8 47.5 11t40.5 3q88 0 145.5 -32.5t57.5 -131.5v-272v-16v-14v-11q2 -16 8.5 -30.5t22.5 -14.5q14 0 23.5 10t17.5 21q4 6 7 11t5 9v2l23 -14q-18 -35 -47 -60.5t-70 -25.5q-49 0 -66.5 29.5t-25.5 72.5 q-47 -39 -100.5 -70.5t-118.5 -31.5q-51 0 -88 34t-37 85zM180 944q0 -33 19.5 -56.5t54.5 -23.5q45 0 84 23.5t70 52.5l5 5l5 5v162q-20 -6 -45 -14t-51 -19q-53 -20 -96.5 -53t-45.5 -82z" />
<glyph unicode="&#xab;" horiz-adv-x="886" d="M78 442q0 10 6 17.5t12 13.5q0 2 1 3t3 1l265 248q4 0 7 3l7 7q2 0 2 1t2 1q14 12 28.5 21.5t30.5 13.5q14 0 25.5 -5t11.5 -22q0 -12 -4 -22t-10 -21q-2 -4 -4 -7t-4 -7l-195 -244l195 -245q10 -14 16 -26.5t6 -29.5v-2q0 -14 -10 -21t-23 -7q-18 0 -33.5 10t-27.5 20 q-6 6 -11 10.5t-9 8.5l-265 248q-2 -2 -3 -1t-1 3q-6 6 -12 14t-6 16zM406 442q0 10 6 17.5t12 13.5q0 2 1 3t3 1l262 248q2 0 4 2t4 2q16 14 34 26.5t38 16.5q14 0 25.5 -5t11.5 -22q0 -12 -4 -22t-12 -21q-2 -4 -4.5 -7t-4.5 -7l-192 -244l192 -245q10 -14 17.5 -26.5 t7.5 -29.5v-2q0 -14 -10.5 -21t-22.5 -7q-18 0 -33.5 10t-27.5 20q-6 6 -11.5 10.5t-11.5 8.5l-262 248q-2 -2 -3 -1t-1 3q-6 6 -12 14t-6 16z" />
<glyph unicode="&#xac;" />
<glyph unicode="&#xad;" horiz-adv-x="1024" />
<glyph unicode="&#xae;" horiz-adv-x="1646" d="M113 682q0 293 208.5 501t501.5 208t501 -208t208 -501t-208 -501t-501 -208t-501.5 208t-208.5 501zM182 682q0 -264 188.5 -452.5t452.5 -188.5v2q264 -2 452.5 186.5t188.5 452.5t-188.5 452.5t-452.5 188.5t-452.5 -188.5t-188.5 -452.5zM479 1020v37h346 q16 -2 35 -3t35 -3q88 -8 159.5 -51.5t71.5 -149.5q0 -74 -38.5 -116t-102.5 -68l158 -267q16 -29 38.5 -41t53.5 -12v-35h-176l-205 355h-135v-240q0 -41 11 -60.5t56 -19.5l35 2v-37h-336v37q51 -2 75 10.5t24 65.5v518q0 37 -12.5 56.5t-55.5 19.5zM719 700h106 q78 -2 121 31t43 119q0 78 -46 118t-118 40l-106 2v-310z" />
<glyph unicode="&#xaf;" />
<glyph unicode="&#xb0;" />
<glyph unicode="&#xb1;" horiz-adv-x="1024" d="M41 96v101h942v-101h-942zM41 676v100h418v400h104v-400h420v-100h-420v-389h-104v389h-418z" />
<glyph unicode="&#xb2;" />
<glyph unicode="&#xb3;" />
<glyph unicode="&#xb4;" horiz-adv-x="1024" d="M322 977v4v3q0 3 2 5l106 256h252q2 -2 4 -2h4q6 -2 11.5 -5t5.5 -11q0 -6 -5 -10l-8 -9l-323 -231q-6 -4 -12.5 -7t-12.5 -5h-5h-5q-6 2 -10 5t-4 7z" />
<glyph unicode="&#xb5;" horiz-adv-x="1126" d="M135 -283q0 23 3 46.5t7 48.5q2 4 3.5 10t1.5 12q31 176 45 357.5t14 361.5v383h170v-588q0 -20 1 -40.5t3 -41.5q8 -76 45 -137t125 -61q78 0 133 48t96 105v715h170v-690v-25v-20q0 -10 2 -19q2 -37 16.5 -67.5t55.5 -30.5q18 0 35.5 6t32.5 14v-32l-187 -92 q-2 0 -4 -2l-2 -1q-2 -2 -4 -2h-4q-39 0 -58.5 30t-29.5 65q-4 20 -7 38.5t-5 32.5l-13 -12l-12 -12q-59 -55 -124.5 -101.5t-149.5 -46.5q-94 0 -147.5 47t-82.5 129q0 -63 7.5 -124.5t15.5 -122.5l4 -29l4 -29q4 -27 8 -54.5t8 -53.5v-10v-9q-4 -39 -23.5 -71.5 t-66.5 -32.5q-43 0 -63.5 31.5t-22.5 70.5v3v3z" />
<glyph unicode="&#xb6;" horiz-adv-x="1167" d="M96 1047v5v7q2 76 39 145.5t103 108.5q49 31 103 40t110 11h18h18l101 2h497v-51h-36q-90 -2 -107.5 -31t-17.5 -106v-19v-1165v-45q2 -61 26.5 -72.5t79.5 -11.5h43v-51h-250v1497h-182v-1497h-274v51h45q88 0 107.5 26.5t21.5 106.5v719q-12 -2 -24 -2h-21 q-12 -2 -24 -2h-21q-154 0 -254.5 87t-100.5 247zM246 1020q0 -98 54 -172t159 -74l82 2v539q-168 -2 -231.5 -56.5t-63.5 -238.5z" />
<glyph unicode="&#xb7;" />
<glyph unicode="&#xb8;" horiz-adv-x="1024" d="M311 -406l33 68q10 -4 18.5 -7t18.5 -5q18 -6 36.5 -10.5t37.5 -4.5h3h3q39 2 71.5 26t34.5 67q0 49 -33.5 73.5t-76.5 38.5q-4 2 -11 4l-12 4l41 152h76l-19 -82q74 -8 130.5 -51t56.5 -125q0 -78 -59.5 -127t-131.5 -61q-10 0 -19 -1.5t-20 -1.5q-45 0 -91 12.5 t-87 30.5z" />
<glyph unicode="&#xb9;" />
<glyph unicode="&#xba;" horiz-adv-x="659" d="M41 616v64h580v-64h-580zM66 1094q0 115 72.5 197.5t191.5 82.5v2q121 -2 193.5 -84t72.5 -200q0 -119 -68.5 -205t-195.5 -86q-125 0 -195.5 86t-70.5 207zM174 1092q0 -16 1 -35t3 -37q6 -68 39 -124t113 -56q82 0 113.5 56t39.5 124q2 18 3 36.5t1 35.5q0 14 -1 30.5 t-3 32.5q-6 68 -38.5 125t-114.5 57v2q-82 -2 -114 -59t-40 -125q0 -16 -1 -32.5t-1 -30.5z" />
<glyph unicode="&#xbb;" horiz-adv-x="886" d="M82 139q0 16 6 29.5t16 26.5l195 249l-195 246q-2 0 -3 2l-1 2q-6 12 -12 22.5t-6 22.5q0 14 9 23.5t24 9.5q18 0 33.5 -10t27.5 -21q6 -6 11.5 -10t9.5 -8l264 -244q2 -4 3 -5l1 -1q6 -6 12 -13t6 -18q0 -8 -6 -16t-12 -14q0 -2 -1 -3t-3 -1l-264 -244q-4 -6 -9.5 -10 t-11.5 -11q-12 -10 -26.5 -20t-30.5 -10q-14 0 -25.5 5t-11.5 21zM408 143q2 16 9 28.5t15 23.5l193 249l-193 246q-8 10 -15 22.5t-9 26.5q0 16 9 24.5t23 8.5q18 0 36 -11t32 -24q4 -4 8 -7t8 -7l264 -244q2 -4 4.5 -6t4.5 -6q6 -4 10 -10t4 -15q0 -8 -4 -14t-10 -12 l-4 -4l-5 -4l-264 -244q-4 -6 -9 -10t-11 -11q-12 -10 -27.5 -20t-32.5 -10q-14 0 -25 7t-11 23z" />
<glyph unicode="&#xbc;" />
<glyph unicode="&#xbd;" horiz-adv-x="1499" d="M123 545v47q59 -2 90 12t31 78v549h-107v49q63 0 118.5 24.5t109.5 57.5v-678q0 -66 29.5 -80t86.5 -14v-45h-358zM330 0l755 1366h72l-756 -1366h-71zM901 0l14 59q27 18 54.5 41t56.5 47q109 94 199 211t90 260q0 63 -43 109.5t-109 46.5q-59 0 -107 -38t-48 -103 q0 -37 21.5 -70t55.5 -43q-6 -18 -20 -27.5t-33 -13.5h-5h-7q-39 0 -60.5 29t-29.5 61q-2 10 -3 19.5t-1 17.5q0 100 74.5 153.5t162.5 55.5h3h3q102 0 185.5 -63.5t83.5 -171.5q0 -125 -83 -221.5t-184 -172.5q-31 -23 -60.5 -44t-57.5 -42l284 2q31 -2 47.5 18.5 t28.5 45.5q0 2 1 5t3 5l4 8l4 9l43 2l-53 -195h-514z" />
<glyph unicode="&#xbe;" />
<glyph unicode="&#xbf;" horiz-adv-x="843" d="M172 -197q0 14 1 30.5t5 31.5q16 92 81 168t165 76q31 0 59.5 -9.5t53.5 -25.5v311h71v-418h-41q-16 27 -42.5 46.5t-61.5 19.5q-55 0 -83 -44t-38 -100q-6 -27 -8 -54.5t-2 -47.5t2 -41.5t6 -42.5q12 -74 53 -134.5t125 -60.5q49 0 71.5 23t39.5 49q2 4 4 9l4 10 q12 20 25.5 35.5t35.5 17.5q29 0 48.5 -15.5t19.5 -46.5q0 -53 -46 -84.5t-102 -44.5q-27 -8 -54 -11t-48 -3q-147 0 -245.5 106.5t-98.5 249.5zM457 758q0 47 33.5 80.5t80.5 33.5v2q47 -2 80 -35.5t33 -80.5t-33 -81t-80 -34t-80.5 34t-33.5 81z" />
<glyph unicode="&#xc0;" horiz-adv-x="1480" d="M-6 0v63q88 0 138 26t83 108l492 1192h75l516 -1190q29 -70 72 -103t119 -35v-61h-563v63h45q10 -2 21.5 -2t23.5 2q27 4 50.5 17.5t23.5 44.5q0 18 -5.5 36.5t-13.5 35.5l-110 266h-545l-107 -264q-6 -16 -10 -29.5t-4 -28.5q0 -43 29.5 -59t64.5 -19q8 -2 17 -2h16 l43 2v-63h-471zM449 549h473l-179 434q-2 6 -6 14.5t-6 16.5l-24 65q-12 33 -21 66q-2 -6 -4 -13.5t-4 -13.5l-4 -12l-4 -12zM549 1708q0 8 5 11t11 5h4h4l252 2l107 -253q2 -4 2 -8v-5q0 -6 -4 -9t-10 -5h-6h-5q-6 2 -12 5t-12 5l-324 236q-4 2 -8 6t-4 10z" />
<glyph unicode="&#xc1;" horiz-adv-x="1480" d="M-6 0v63q88 0 138 26t83 108l492 1192h75l516 -1190q29 -70 72 -103t119 -35v-61h-563v63h45q10 -2 21.5 -2t23.5 2q27 4 50.5 17.5t23.5 44.5q0 18 -5.5 36.5t-13.5 35.5l-110 266h-545l-107 -264q-6 -16 -10 -29.5t-4 -28.5q0 -43 29.5 -59t64.5 -19q8 -2 17 -2h16 l43 2v-63h-471zM449 549h473l-179 434q-2 6 -6 14.5t-6 16.5l-24 65q-12 33 -21 66q-2 -6 -4 -13.5t-4 -13.5l-4 -12l-4 -12zM549 1458v4v3q0 3 2 5l106 256h252q2 -2 4 -2h5q6 -2 11 -5t5 -11q0 -6 -4 -10l-8 -8l-324 -232q-6 -4 -12 -7t-13 -5h-5h-5q-6 2 -10 5t-4 7z" />
<glyph unicode="&#xc2;" horiz-adv-x="1480" d="M-6 0v63q88 0 138 26t83 108l492 1192h75l516 -1190q29 -70 72 -103t119 -35v-61h-563v63h45q10 -2 21.5 -2t23.5 2q27 4 50.5 17.5t23.5 44.5q0 18 -5.5 36.5t-13.5 35.5l-110 266h-545l-107 -264q-6 -16 -10 -29.5t-4 -28.5q0 -43 29.5 -59t64.5 -19q8 -2 17 -2h16 l43 2v-63h-471zM449 549h473l-179 434q-2 6 -6 14.5t-6 16.5l-24 65q-12 33 -21 66q-2 -6 -4 -13.5t-4 -13.5l-4 -12l-4 -12zM479 1468q0 10 5 17.5t12 13.5l245 246l248 -244q0 -2 1 -3l3 -3q4 -4 7.5 -9t3.5 -11q0 -14 -8.5 -25.5t-24.5 -11.5l-2 2q-8 -2 -14.5 1t-10.5 7 l-3 3q-1 1 -3 1l-197 137l-194 -135l-3 -3l-3 -3q-4 -4 -10.5 -7t-14.5 -3l-2 2q-12 -2 -21.5 7t-13.5 21z" />
<glyph unicode="&#xc3;" horiz-adv-x="1480" d="M-6 0v63q88 0 138 26t83 108l492 1192h75l516 -1190q29 -70 72 -103t119 -35v-61h-563v63h45q10 -2 21.5 -2t23.5 2q27 4 50.5 17.5t23.5 44.5q0 18 -5.5 36.5t-13.5 35.5l-110 266h-545l-107 -264q-6 -16 -10 -29.5t-4 -28.5q0 -43 29.5 -59t64.5 -19q8 -2 17 -2h16 l43 2v-63h-471zM408 1503q6 10 14 21.5t16 23.5q35 49 83 91t110 42q35 0 67.5 -7t65.5 -17q2 -2 6 -3t6 -1q37 -10 73 -19.5t75 -9.5q37 0 65.5 18.5t52.5 40.5v3l35 -25q-4 -8 -8 -14l-8 -13q-37 -51 -87 -95t-116 -46q-37 0 -73.5 8t-71.5 21q-37 10 -74 18t-74 8 q-33 0 -60.5 -18.5t-47.5 -40.5q-4 -2 -6 -5t-5 -5zM449 549h473l-179 434q-2 6 -6 14.5t-6 16.5l-24 65q-12 33 -21 66q-2 -6 -4 -13.5t-4 -13.5l-4 -12l-4 -12z" />
<glyph unicode="&#xc4;" horiz-adv-x="1480" d="M-6 0v63q88 0 138 26t83 108l492 1192h75l516 -1190q29 -70 72 -103t119 -35v-61h-563v63h45q10 -2 21.5 -2t23.5 2q27 4 50.5 17.5t23.5 44.5q0 18 -5.5 36.5t-13.5 35.5l-110 266h-545l-107 -264q-6 -16 -10 -29.5t-4 -28.5q0 -43 29.5 -59t64.5 -19q8 -2 17 -2h16 l43 2v-63h-471zM432 1575v2q0 49 36 85t87 36t87 -36t36 -87t-36 -87t-87 -36t-87 36t-36 87zM449 549h473l-179 434q-2 6 -6 14.5t-6 16.5l-24 65q-12 33 -21 66q-2 -6 -4 -13.5t-4 -13.5l-4 -12l-4 -12zM807 1575v2q0 49 37 85t86 36q51 0 87 -36t36 -87t-36 -87t-87 -36 q-49 0 -86 36t-37 87z" />
<glyph unicode="&#xc5;" horiz-adv-x="1480" d="M-6 0v63q88 0 138 26t83 108l492 1192h75l516 -1190q29 -70 72 -103t119 -35v-61h-563v63h45q10 -2 21.5 -2t23.5 2q27 4 50.5 17.5t23.5 44.5q0 18 -5.5 36.5t-13.5 35.5l-110 266h-545l-107 -264q-6 -16 -10 -29.5t-4 -28.5q0 -43 29.5 -59t64.5 -19q8 -2 17 -2h16 l43 2v-63h-471zM449 549h473l-179 434q-2 6 -6 14.5t-6 16.5l-24 65q-12 33 -21 66q-2 -6 -4 -13.5t-4 -13.5l-4 -12l-4 -12zM567 1616q0 72 52.5 123t121.5 51q72 0 123 -54.5t51 -125.5q0 -70 -52 -119t-122 -49v2q-70 -2 -122 50t-52 122zM647 1616q0 -39 27.5 -66.5 t66.5 -27.5v2q39 -2 67 25.5t28 66.5t-28 66.5t-67 27.5t-66.5 -27.5t-27.5 -66.5z" />
<glyph unicode="&#xc6;" horiz-adv-x="1804" d="M-6 0v63q90 0 140 44.5t89 121.5l477 967q2 0 3.5 3t1.5 5q2 6 5 12.5t3 12.5q0 39 -29 53t-61 16q-14 2 -27 2h-25l-14 3v63h1083l39 -336h-63q-39 141 -102.5 201.5t-215.5 60.5l-249 2v-495h155q84 -2 121 56t39 132l61 2v-465h-61q-2 76 -30.5 135.5t-121.5 59.5 l-163 2v-467q0 -121 69.5 -154.5t169.5 -33.5q195 0 299.5 80.5t136.5 275.5v2h62l-25 -424h-1122v63q119 4 162 34t43 155v399h-324l-184 -372q-12 -29 -23.5 -56.5t-15.5 -56.5q0 -55 38 -75.5t85 -27.5q8 0 15 -1t16 -1v-61h-457zM557 721h287v586z" />
<glyph unicode="&#xc7;" horiz-adv-x="1454" d="M100 664q0 301 190.5 517t502.5 216q121 0 232.5 -36t211.5 -101q10 16 17.5 33.5t13.5 35.5q2 0 2 2v2q4 8 7 15.5t5 15.5l57 2l19 -496h-64q-47 190 -162.5 323.5t-330.5 133.5q-221 0 -327.5 -159.5t-131.5 -352.5q-2 -31 -4 -60.5t-2 -58.5q0 -238 117.5 -434 t388.5 -196q158 0 297 93t200 238l74 -53q-78 -172 -242.5 -273.5t-351.5 -105.5l-24 -78q66 -16 117 -53t51 -113t-58.5 -124t-128.5 -54h-8h-8q-51 0 -100.5 15.5t-92.5 44.5l33 45q29 -16 58.5 -26.5t62.5 -12.5q47 0 81 31.5t34 78.5q0 43 -29 68t-64 41l-14 7 q-6 3 -12 5l41 125q-297 4 -477.5 208t-180.5 491z" />
<glyph unicode="&#xc8;" horiz-adv-x="1196" d="M29 0v63q2 -2 3 -2h3q98 4 148 28t50 136v914q0 111 -51 134t-147 27h-3h-3v66h1007l37 -334h-63q-27 113 -87.5 187.5t-187.5 74.5l-297 2v-536h129q96 -2 141.5 46t49.5 142l63 2v-463h-63v5q-14 94 -45 144t-146 50l-129 2v-438q0 -109 58.5 -145.5t156.5 -36.5 q127 0 229.5 23.5t172.5 144.5q18 35 34.5 73.5t24.5 77.5q2 8 3 16.5t1 16.5l60 2l-27 -422h-1122zM406 1708q0 8 5 11t11 5h4h4l252 2l106 -253q2 -4 3 -8v-5q0 -6 -4.5 -9t-10.5 -5h-5h-5q-6 2 -12 5t-13 5l-323 236q-4 2 -8 6t-4 10z" />
<glyph unicode="&#xc9;" horiz-adv-x="1196" d="M29 0v63q2 -2 3 -2h3q98 4 148 28t50 136v914q0 111 -51 134t-147 27h-3h-3v66h1007l37 -334h-63q-27 113 -87.5 187.5t-187.5 74.5l-297 2v-536h129q96 -2 141.5 46t49.5 142l63 2v-463h-63v5q-14 94 -45 144t-146 50l-129 2v-438q0 -109 58.5 -145.5t156.5 -36.5 q127 0 229.5 23.5t172.5 144.5q18 35 34.5 73.5t24.5 77.5q2 8 3 16.5t1 16.5l60 2l-27 -422h-1122zM406 1458v4v3q0 3 2 5l106 256h252q2 -2 4 -2h4q6 -2 11.5 -5t5.5 -11q0 -6 -5 -10l-8 -8l-323 -232q-6 -4 -12.5 -7t-12.5 -5h-5h-5q-6 2 -10 5t-4 7z" />
<glyph unicode="&#xca;" horiz-adv-x="1196" d="M29 0v63q2 -2 3 -2h3q98 4 148 28t50 136v914q0 111 -51 134t-147 27h-3h-3v66h1007l37 -334h-63q-27 113 -87.5 187.5t-187.5 74.5l-297 2v-536h129q96 -2 141.5 46t49.5 142l63 2v-463h-63v5q-14 94 -45 144t-146 50l-129 2v-438q0 -109 58.5 -145.5t156.5 -36.5 q127 0 229.5 23.5t172.5 144.5q18 35 34.5 73.5t24.5 77.5q2 8 3 16.5t1 16.5l60 2l-27 -422h-1122zM336 1468q0 10 5 17.5t11 13.5l246 246l248 -244q0 -2 1 -3l3 -3q4 -4 7 -9t3 -11q0 -14 -8 -25.5t-25 -11.5l-2 2q-8 -2 -14 1t-10 7l-3 3q-1 1 -3 1l-197 137l-195 -135 l-3 -3l-3 -3q-4 -4 -10 -7t-14 -3l-2 2q-12 -2 -21.5 7t-13.5 21z" />
<glyph unicode="&#xcb;" horiz-adv-x="1196" d="M29 0v63q2 -2 3 -2h3q98 4 148 28t50 136v914q0 111 -51 134t-147 27h-3h-3v66h1007l37 -334h-63q-27 113 -87.5 187.5t-187.5 74.5l-297 2v-536h129q96 -2 141.5 46t49.5 142l63 2v-463h-63v5q-14 94 -45 144t-146 50l-129 2v-438q0 -109 58.5 -145.5t156.5 -36.5 q127 0 229.5 23.5t172.5 144.5q18 35 34.5 73.5t24.5 77.5q2 8 3 16.5t1 16.5l60 2l-27 -422h-1122zM289 1575v2q0 49 35.5 85t87.5 36q51 0 87 -36t36 -87t-36 -87t-87 -36t-87 36t-36 87zM664 1575v2q0 49 36.5 85t85.5 36q51 0 87 -36t36 -87t-35.5 -87t-87.5 -36 q-49 0 -85.5 36t-36.5 87z" />
<glyph unicode="&#xcc;" horiz-adv-x="669" d="M29 0v63q2 -2 3 -2h3q98 4 148 28t50 136v914q0 111 -51 134t-147 27h-3h-3v66h614v-63q-14 -2 -30.5 -3.5t-32.5 -3.5q-25 -2 -49.5 -8t-45.5 -16q-25 -12 -34 -38t-11 -52q-2 -12 -2 -24v-21v-910q0 -117 50.5 -139t144.5 -27h5h5v-61h-614zM143 1708q0 8 5.5 11 t11.5 5h4h4l252 2l106 -253q2 -4 2 -8v-5q0 -6 -4 -9t-10 -5h-5h-5q-6 2 -12.5 5t-12.5 5l-323 236q-4 2 -8.5 6t-4.5 10z" />
<glyph unicode="&#xcd;" horiz-adv-x="669" d="M29 0v63q2 -2 3 -2h3q98 4 148 28t50 136v914q0 111 -51 134t-147 27h-3h-3v66h614v-63q-14 -2 -30.5 -3.5t-32.5 -3.5q-25 -2 -49.5 -8t-45.5 -16q-25 -12 -34 -38t-11 -52q-2 -12 -2 -24v-21v-910q0 -117 50.5 -139t144.5 -27h5h5v-61h-614zM143 1458v4v3q0 3 2 5 l107 256h252q2 -2 4 -2h4q6 -2 11 -5t5 -11q0 -6 -4 -10l-8 -8l-323 -232q-6 -4 -12.5 -7t-12.5 -5h-5h-5q-6 2 -10.5 5t-4.5 7z" />
<glyph unicode="&#xce;" horiz-adv-x="669" d="M29 0v63q2 -2 3 -2h3q98 4 148 28t50 136v914q0 111 -51 134t-147 27h-3h-3v66h614v-63q-14 -2 -30.5 -3.5t-32.5 -3.5q-25 -2 -49.5 -8t-45.5 -16q-25 -12 -34 -38t-11 -52q-2 -12 -2 -24v-21v-910q0 -117 50.5 -139t144.5 -27h5h5v-61h-614zM72 1468q0 10 5 17.5 t11 13.5l246 246l248 -244q0 -2 1 -3l3 -3q4 -4 7 -9t3 -11q0 -14 -8 -25.5t-25 -11.5l-2 2q-8 -2 -14 1t-10 7l-3 3q-1 1 -4 1l-196 137l-195 -135l-3 -3l-3 -3q-4 -4 -10 -7t-14 -3l-3 2q-12 -2 -21 7t-13 21z" />
<glyph unicode="&#xcf;" horiz-adv-x="669" d="M25 1575v2q0 49 35.5 85t86.5 36t87 -36t36 -87t-35.5 -87t-87.5 -36q-51 0 -86.5 36t-35.5 87zM29 0v63q2 -2 3 -2h3q98 4 148 28t50 136v914q0 111 -51 134t-147 27h-3h-3v66h614v-63q-14 -2 -30.5 -3.5t-32.5 -3.5q-25 -2 -49.5 -8t-45.5 -16q-25 -12 -34 -38t-11 -52 q-2 -12 -2 -24v-21v-910q0 -117 50.5 -139t144.5 -27h5h5v-61h-614zM399 1575v2q0 49 37 85t86 36q51 0 87 -36t36 -87t-36 -87t-87 -36q-49 0 -86 36t-37 87z" />
<glyph unicode="&#xd0;" horiz-adv-x="1497" d="M27 0v63q2 -2 3 -2h3q98 4 148 28t50 136v453h-131v78h131v383q0 111 -51 134t-147 27h-3h-3v3v63q35 -2 68 -2h69q35 -2 69 -2h68h69q34 0 68 2h68h67h71q36 0 71 -2q61 -2 119.5 -11.5t115.5 -27.5q215 -76 333 -252t118 -401q0 -303 -188.5 -486.5t-491.5 -183.5h-694 zM436 297q0 -154 49.5 -190.5t192.5 -36.5q270 0 375.5 183t105.5 421q0 293 -138 458.5t-439 165.5h-37q-18 0 -35 -2q-18 0 -36.5 -1t-37.5 -3v2v-538h381v-78h-381v-381z" />
<glyph unicode="&#xd1;" horiz-adv-x="1484" d="M27 0v63q115 2 159.5 53.5t44.5 166.5v856q0 111 -51 134t-147 27h-3h-3v66h405l670 -924q16 -27 31 -53l28 -53q4 -8 8.5 -17.5t8.5 -17.5v36v34q-2 16 -2 33v36v658q0 119 -32 147.5t-85 38.5q-16 2 -33.5 6t-38.5 10v66h471v-63q-109 -4 -152.5 -52.5t-43.5 -154.5 v-1108h-86l-730 1016q-37 47 -69.5 98t-63.5 104v-866q0 -127 30 -197.5t173 -81.5v-61h-489zM408 1503q6 10 14 21.5t16 23.5q35 49 83 91t110 42q35 0 67.5 -7t65.5 -17q2 -2 6 -3t6 -1q37 -10 73 -19.5t75 -9.5q37 0 65.5 18.5t52.5 40.5v3l35 -25q-4 -8 -8 -14l-8 -13 q-37 -51 -87 -95t-116 -46q-37 0 -73.5 8t-71.5 21q-37 10 -74 18t-74 8q-33 0 -60.5 -18.5t-47.5 -40.5q-4 -2 -6 -5t-5 -5z" />
<glyph unicode="&#xd2;" />
<glyph unicode="&#xd3;" horiz-adv-x="1642" d="M94 680q0 317 207 517t518 200q313 0 520 -200t207 -517q0 -313 -208 -514t-519 -201q-309 0 -517 202t-208 513zM330 659q4 -236 109.5 -430t379.5 -194v2q270 -2 377 189.5t113 420.5v18v17v19v20q-8 229 -113.5 419.5t-376.5 190.5q-268 0 -374.5 -190.5 t-114.5 -419.5v-20v-19v-12v-11zM627 1458v4v3q0 3 2 5l106 256h252q2 -2 4 -2h4q6 -2 11.5 -5t5.5 -11q0 -6 -4 -10l-9 -8l-323 -232q-6 -4 -12.5 -7t-12.5 -5h-5h-5q-6 2 -10 5t-4 7z" />
<glyph unicode="&#xd4;" horiz-adv-x="1642" d="M94 680q0 317 207 517t518 200q313 0 520 -200t207 -517q0 -313 -208 -514t-519 -201q-309 0 -517 202t-208 513zM330 659q4 -236 109.5 -430t379.5 -194v2q270 -2 377 189.5t113 420.5v18v17v19v20q-8 229 -113.5 419.5t-376.5 190.5q-268 0 -374.5 -190.5 t-114.5 -419.5v-20v-19v-12v-11zM557 1468q0 10 5 17.5t11 13.5l246 246l248 -244q0 -2 1 -3l3 -3q4 -4 7 -9t3 -11q0 -14 -8 -25.5t-24 -11.5l-2 2q-8 -2 -14.5 1t-10.5 7l-3 3q-1 1 -3 1l-197 137l-194 -135l-3 -3l-4 -3q-4 -4 -10 -7t-14 -3l-2 2q-12 -2 -21.5 7 t-13.5 21z" />
<glyph unicode="&#xd5;" horiz-adv-x="1642" d="M94 680q0 317 207 517t518 200q313 0 520 -200t207 -517q0 -313 -208 -514t-519 -201q-309 0 -517 202t-208 513zM330 659q4 -236 109.5 -430t379.5 -194v2q270 -2 377 189.5t113 420.5v18v17v19v20q-8 229 -113.5 419.5t-376.5 190.5q-268 0 -374.5 -190.5 t-114.5 -419.5v-20v-19v-12v-11zM485 1501q6 10 14.5 21.5t16.5 23.5q35 49 83 91t110 42q35 0 67.5 -7t65.5 -17q2 -2 6 -3t6 -1q37 -10 73 -19.5t74 -9.5q37 0 66 18.5t53 40.5v2l35 -24q-4 -8 -8 -14l-8 -13q-37 -51 -87.5 -95t-115.5 -46q-37 0 -74 8t-71 21 q-37 10 -74 18t-74 8q-33 0 -60.5 -18.5t-47.5 -40.5q-4 -2 -6.5 -5t-4.5 -5z" />
<glyph unicode="&#xd6;" horiz-adv-x="1642" d="M94 680q0 317 207 517t518 200q313 0 520 -200t207 -517q0 -313 -208 -514t-519 -201q-309 0 -517 202t-208 513zM330 659q4 -236 109.5 -430t379.5 -194v2q270 -2 377 189.5t113 420.5v18v17v19v20q-8 229 -113.5 419.5t-376.5 190.5q-268 0 -374.5 -190.5 t-114.5 -419.5v-20v-19v-12v-11zM510 1575v2q0 49 36 85t87 36t87 -36t36 -87t-36 -87t-87 -36t-87 36t-36 87zM885 1575v2q0 49 36.5 85t86.5 36q51 0 86.5 -36t35.5 -87t-35.5 -87t-86.5 -36q-49 0 -86 36t-37 87z" />
<glyph unicode="&#xd7;" />
<glyph unicode="&#xd8;" horiz-adv-x="1642" d="M94 680q0 317 207 517t518 200q115 0 226.5 -31t205.5 -96l140 174l61 -49l-141 -170l6 -4q115 -106 172 -246.5t57 -294.5q0 -315 -206.5 -515t-520.5 -200h-15h-16q-109 4 -213 35t-192 94l-139 -168l-62 49l142 170q-4 2 -9.5 6.5t-9.5 8.5q-106 104 -158.5 238.5 t-52.5 281.5zM330 682q0 -20 1 -42t1 -44q6 -92 26.5 -183t69.5 -171v2l739 940q-68 74 -157.5 110.5t-190.5 36.5q-270 0 -376.5 -193.5t-112.5 -426.5v-14v-15zM475 180q66 -76 157 -110.5t187 -34.5q270 0 377 191.5t113 420.5v18v17q0 31 -1 61.5t-3 61.5q-8 82 -28 162 t-63 149v2z" />
<glyph unicode="&#xd9;" horiz-adv-x="1429" d="M27 1300v64h614v-61q-8 -2 -15 -3h-14h-4h-4q-63 -2 -115.5 -25.5t-52.5 -139.5v-654q0 -195 55.5 -320.5t284.5 -125.5q213 0 275.5 123t62.5 303v20v643q0 111 -51 139.5t-154 36.5v64h494v-61q-2 -2 -5 -3h-7q-12 -2 -24.5 -3t-25.5 -3q-27 -2 -51 -8t-45 -18 q-25 -14 -35 -40t-12 -54q-2 -12 -2 -26v-26v-657q0 -219 -85 -359.5t-335 -140.5q-285 0 -415 89t-130 401v682q0 113 -50 136t-148 27h-3h-3zM522 1708q0 8 5 11t12 5h4h4l252 2l106 -253q2 -4 2 -8v-5q0 -6 -4 -9t-10 -5h-5h-5q-6 2 -12.5 5t-12.5 5l-323 236 q-4 2 -8.5 6t-4.5 10z" />
<glyph unicode="&#xda;" horiz-adv-x="1429" d="M27 1300v64h614v-61q-8 -2 -15 -3h-14h-4h-4q-63 -2 -115.5 -25.5t-52.5 -139.5v-654q0 -195 55.5 -320.5t284.5 -125.5q213 0 275.5 123t62.5 303v20v643q0 111 -51 139.5t-154 36.5v64h494v-61q-2 -2 -5 -3h-7q-12 -2 -24.5 -3t-25.5 -3q-27 -2 -51 -8t-45 -18 q-25 -14 -35 -40t-12 -54q-2 -12 -2 -26v-26v-657q0 -219 -85 -359.5t-335 -140.5q-285 0 -415 89t-130 401v682q0 113 -50 136t-148 27h-3h-3zM520 1458v4v3q0 3 2 5l107 256h252q2 -2 4 -2h4q6 -2 11 -5t5 -11q0 -6 -4 -10l-8 -8l-324 -232q-6 -4 -12 -7t-12 -5h-5h-5 q-6 2 -10.5 5t-4.5 7z" />
<glyph unicode="&#xdb;" horiz-adv-x="1429" d="M27 1300v64h614v-61q-8 -2 -15 -3h-14h-4h-4q-63 -2 -115.5 -25.5t-52.5 -139.5v-654q0 -195 55.5 -320.5t284.5 -125.5q213 0 275.5 123t62.5 303v20v643q0 111 -51 139.5t-154 36.5v64h494v-61q-2 -2 -5 -3h-7q-12 -2 -24.5 -3t-25.5 -3q-27 -2 -51 -8t-45 -18 q-25 -14 -35 -40t-12 -54q-2 -12 -2 -26v-26v-657q0 -219 -85 -359.5t-335 -140.5q-285 0 -415 89t-130 401v682q0 113 -50 136t-148 27h-3h-3zM451 1468q0 10 5 17.5t11 13.5l246 246l248 -244q0 -2 1 -3l3 -3q4 -4 7 -9t3 -11q0 -14 -8.5 -25.5t-24.5 -11.5l-2 2 q-8 -2 -14 1t-11 7l-3 3q-1 1 -3 1l-196 137l-195 -135l-3 -3l-3 -3q-4 -4 -10 -7t-15 -3l-2 2q-12 -2 -21 7t-13 21z" />
<glyph unicode="&#xdc;" horiz-adv-x="1429" d="M27 1300v64h614v-61q-8 -2 -15 -3h-14h-4h-4q-63 -2 -115.5 -25.5t-52.5 -139.5v-654q0 -195 55.5 -320.5t284.5 -125.5q213 0 275.5 123t62.5 303v20v643q0 111 -51 139.5t-154 36.5v64h494v-61q-2 -2 -5 -3h-7q-12 -2 -24.5 -3t-25.5 -3q-27 -2 -51 -8t-45 -18 q-25 -14 -35 -40t-12 -54q-2 -12 -2 -26v-26v-657q0 -219 -85 -359.5t-335 -140.5q-285 0 -415 89t-130 401v682q0 113 -50 136t-148 27h-3h-3zM403 1575v2q0 49 36 85t87 36t87 -36t36 -87t-35.5 -87t-87.5 -36q-51 0 -87 36t-36 87zM778 1575v2q0 49 37 85t86 36 q51 0 87 -36t36 -87t-36 -87t-87 -36q-49 0 -86 36t-37 87z" />
<glyph unicode="&#xdd;" />
<glyph unicode="&#xde;" horiz-adv-x="1097" d="M27 0v63q2 -2 3 -2h3q98 4 148 28t50 136v914q0 111 -56 134t-148 27v66h614v-63q-2 -2 -4 -3h-4q-16 -2 -32.5 -3t-35.5 -3q-49 -4 -89 -24.5t-40 -75.5v-47q18 -2 37 -2t37 2h37h37h13h15q182 -4 334 -70.5t152 -292.5q0 -94 -44 -176t-128 -127q-47 -27 -101.5 -37 t-107.5 -12q-20 -2 -41 -2h-41l-199 2v-205q0 -117 50.5 -139t144.5 -27h5h5v-61h-614zM436 496h158q139 -2 211 78.5t72 216.5q0 170 -82 234.5t-244 64.5q-14 0 -28.5 -1.5t-28.5 -1.5q-4 0 -9.5 -1t-9.5 -1q-10 0 -19.5 -1t-19.5 -1v-587z" />
<glyph unicode="&#xdf;" horiz-adv-x="1087" d="M39 0v63q82 0 109.5 43.5t27.5 118.5v799q0 166 108.5 269.5t274.5 103.5q139 0 253 -84t114 -234q0 -115 -76 -177t-170 -103q141 -39 225 -145.5t84 -252.5v-21q0 -11 -2 -22q-12 -143 -100 -262t-248 -119q-12 0 -25 3l-24 4q-43 12 -79 39.5t-36 74.5q0 29 20.5 51.5 t49.5 22.5q31 0 48 -19.5t34 -41.5q0 -2 2 -5q14 -23 30.5 -40t42.5 -17q41 0 61.5 55.5t29.5 120.5q8 51 9 97.5t1 66.5q0 195 -73 279t-271 84v79q2 -2 4 -2h6q2 -2 4 -2h4q127 0 202 63.5t75 194.5q0 109 -48.5 181.5t-166.5 72.5q-106 0 -149.5 -67.5t-43.5 -163.5v-893 q0 -61 11.5 -105t80.5 -49v-61h-399z" />
<glyph unicode="&#xe0;" horiz-adv-x="925" d="M82 186q0 160 102.5 210t227.5 79q43 10 87 21.5t83 27.5v72q0 88 -26 150.5t-134 62.5q-68 0 -93.5 -32t-39.5 -68q-2 -4 -3 -7.5t-1 -7.5q-12 -33 -30.5 -60.5t-68.5 -27.5q-6 0 -12 1t-10 1q-27 6 -47.5 22.5t-20.5 43.5q0 72 61.5 116t137.5 64q35 10 69.5 14t61.5 4 q137 0 231.5 -53t94.5 -207v-448v-14q0 -6 2 -13q2 -23 12 -43t39 -22q39 0 56.5 26.5t25.5 59.5q0 2 1 3t1 3q2 4 3 7t1 7v2h61q-20 -80 -67 -141.5t-137 -61.5q-70 0 -114 37t-54 107q-47 -53 -117 -91t-141 -48q-10 0 -20.5 -1t-20.5 -1q-92 0 -146.5 58t-54.5 148z M252 244q0 -63 39 -106.5t104 -43.5q53 0 100.5 25.5t86.5 58.5v289q-18 -10 -39 -17.5t-43 -13.5q-12 -4 -23.5 -7t-23.5 -7q-74 -23 -134.5 -59.5t-66.5 -118.5zM270 1227q0 8 5.5 11t11.5 5h4h4l252 2l106 -254q2 -4 2 -7v-5q0 -6 -4 -9t-10 -5h-5h-5q-6 2 -12.5 5 t-12.5 5l-323 235q-4 2 -8.5 6.5t-4.5 10.5z" />
<glyph unicode="&#xe1;" horiz-adv-x="925" d="M82 186q0 160 102.5 210t227.5 79q43 10 87 21.5t83 27.5v72q0 88 -26 150.5t-134 62.5q-68 0 -93.5 -32t-39.5 -68q-2 -4 -3 -7.5t-1 -7.5q-12 -33 -30.5 -60.5t-68.5 -27.5q-6 0 -12 1t-10 1q-27 6 -47.5 22.5t-20.5 43.5q0 72 61.5 116t137.5 64q35 10 69.5 14t61.5 4 q137 0 231.5 -53t94.5 -207v-448v-14q0 -6 2 -13q2 -23 12 -43t39 -22q39 0 56.5 26.5t25.5 59.5q0 2 1 3t1 3q2 4 3 7t1 7v2h61q-20 -80 -67 -141.5t-137 -61.5q-70 0 -114 37t-54 107q-47 -53 -117 -91t-141 -48q-10 0 -20.5 -1t-20.5 -1q-92 0 -146.5 58t-54.5 148z M252 244q0 -63 39 -106.5t104 -43.5q53 0 100.5 25.5t86.5 58.5v289q-18 -10 -39 -17.5t-43 -13.5q-12 -4 -23.5 -7t-23.5 -7q-74 -23 -134.5 -59.5t-66.5 -118.5zM270 977v4v3q0 3 2 5l107 256h252q2 -2 4 -2h4q6 -2 11 -5t5 -11q0 -6 -4 -10l-8 -9l-324 -231q-6 -4 -12 -7 t-12 -5h-5h-5q-6 2 -10.5 5t-4.5 7z" />
<glyph unicode="&#xe2;" horiz-adv-x="925" d="M82 186q0 160 102.5 210t227.5 79q43 10 87 21.5t83 27.5v72q0 88 -26 150.5t-134 62.5q-68 0 -93.5 -32t-39.5 -68q-2 -4 -3 -7.5t-1 -7.5q-12 -33 -30.5 -60.5t-68.5 -27.5q-6 0 -12 1t-10 1q-27 6 -47.5 22.5t-20.5 43.5q0 72 61.5 116t137.5 64q35 10 69.5 14t61.5 4 q137 0 231.5 -53t94.5 -207v-448v-14q0 -6 2 -13q2 -23 12 -43t39 -22q39 0 56.5 26.5t25.5 59.5q0 2 1 3t1 3q2 4 3 7t1 7v2h61q-20 -80 -67 -141.5t-137 -61.5q-70 0 -114 37t-54 107q-47 -53 -117 -91t-141 -48q-10 0 -20.5 -1t-20.5 -1q-92 0 -146.5 58t-54.5 148z M201 997q0 10 5 17.5t11 13.5l246 246l248 -244q0 -2 1 -3l3 -3q4 -4 7 -9t3 -11q0 -14 -8 -25.5t-25 -11.5l-2 2q-8 -2 -14 1t-10 7l-3 3q-1 1 -4 1l-196 137l-195 -135l-3 -3l-3 -3q-4 -4 -10 -7t-14 -3l-2 2q-12 -2 -21.5 7t-13.5 21zM252 244q0 -63 39 -106.5t104 -43.5 q53 0 100.5 25.5t86.5 58.5v289q-18 -10 -39 -17.5t-43 -13.5q-12 -4 -23.5 -7t-23.5 -7q-74 -23 -134.5 -59.5t-66.5 -118.5z" />
<glyph unicode="&#xe3;" horiz-adv-x="925" d="M82 186q0 160 102.5 210t227.5 79q43 10 87 21.5t83 27.5v72q0 88 -26 150.5t-134 62.5q-68 0 -93.5 -32t-39.5 -68q-2 -4 -3 -7.5t-1 -7.5q-12 -33 -30.5 -60.5t-68.5 -27.5q-6 0 -12 1t-10 1q-27 6 -47.5 22.5t-20.5 43.5q0 72 61.5 116t137.5 64q35 10 69.5 14t61.5 4 q137 0 231.5 -53t94.5 -207v-448v-14q0 -6 2 -13q2 -23 12 -43t39 -22q39 0 56.5 26.5t25.5 59.5q0 2 1 3t1 3q2 4 3 7t1 7v2h61q-20 -80 -67 -141.5t-137 -61.5q-70 0 -114 37t-54 107q-47 -53 -117 -91t-141 -48q-10 0 -20.5 -1t-20.5 -1q-92 0 -146.5 58t-54.5 148z M129 1032q6 10 14.5 21.5t16.5 23.5q35 49 83 91t109 42q35 0 68 -7t65 -17q2 -2 6.5 -3t6.5 -1q37 -10 72.5 -19.5t74.5 -9.5q37 0 65.5 18.5t53.5 40.5v2l35 -24q-4 -8 -8 -14l-9 -13q-37 -51 -87 -95t-115 -46q-37 0 -74 8t-72 21q-37 10 -73.5 18t-73.5 8 q-33 0 -60.5 -18.5t-48.5 -40.5q-4 -2 -6 -5t-4 -5zM252 244q0 -63 39 -106.5t104 -43.5q53 0 100.5 25.5t86.5 58.5v289q-18 -10 -39 -17.5t-43 -13.5q-12 -4 -23.5 -7t-23.5 -7q-74 -23 -134.5 -59.5t-66.5 -118.5z" />
<glyph unicode="&#xe4;" horiz-adv-x="925" d="M82 186q0 160 102.5 210t227.5 79q43 10 87 21.5t83 27.5v72q0 88 -26 150.5t-134 62.5q-68 0 -93.5 -32t-39.5 -68q-2 -4 -3 -7.5t-1 -7.5q-12 -33 -30.5 -60.5t-68.5 -27.5q-6 0 -12 1t-10 1q-27 6 -47.5 22.5t-20.5 43.5q0 72 61.5 116t137.5 64q35 10 69.5 14t61.5 4 q137 0 231.5 -53t94.5 -207v-448v-14q0 -6 2 -13q2 -23 12 -43t39 -22q39 0 56.5 26.5t25.5 59.5q0 2 1 3t1 3q2 4 3 7t1 7v2h61q-20 -80 -67 -141.5t-137 -61.5q-70 0 -114 37t-54 107q-47 -53 -117 -91t-141 -48q-10 0 -20.5 -1t-20.5 -1q-92 0 -146.5 58t-54.5 148z M154 1090v2q0 49 35.5 84.5t86.5 35.5t87 -35.5t36 -86.5t-35.5 -87t-87.5 -36q-51 0 -86.5 36t-35.5 87zM252 244q0 -63 39 -106.5t104 -43.5q53 0 100.5 25.5t86.5 58.5v289q-18 -10 -39 -17.5t-43 -13.5q-12 -4 -23.5 -7t-23.5 -7q-74 -23 -134.5 -59.5t-66.5 -118.5z M528 1090v2q0 49 37 84.5t86 35.5q51 0 87 -35.5t36 -86.5t-36 -87t-87 -36q-49 0 -86 36t-37 87z" />
<glyph unicode="&#xe5;" horiz-adv-x="925" d="M82 186q0 160 102.5 210t227.5 79q43 10 87 21.5t83 27.5v72q0 88 -26 150.5t-134 62.5q-68 0 -93.5 -32t-39.5 -68q-2 -4 -3 -7.5t-1 -7.5q-12 -33 -30.5 -60.5t-68.5 -27.5q-6 0 -12 1t-10 1q-27 6 -47.5 22.5t-20.5 43.5q0 72 61.5 116t137.5 64q35 10 69.5 14t61.5 4 q137 0 231.5 -53t94.5 -207v-448v-14q0 -6 2 -13q2 -23 12 -43t39 -22q39 0 56.5 26.5t25.5 59.5q0 2 1 3t1 3q2 4 3 7t1 7v2h61q-20 -80 -67 -141.5t-137 -61.5q-70 0 -114 37t-54 107q-47 -53 -117 -91t-141 -48q-10 0 -20.5 -1t-20.5 -1q-92 0 -146.5 58t-54.5 148z M252 244q0 -63 39 -106.5t104 -43.5q53 0 100.5 25.5t86.5 58.5v289q-18 -10 -39 -17.5t-43 -13.5q-12 -4 -23.5 -7t-23.5 -7q-74 -23 -134.5 -59.5t-66.5 -118.5zM289 1130q0 72 52 123.5t122 51.5q72 0 123 -54.5t51 -126.5q0 -70 -52.5 -119t-121.5 -49v2q-70 -2 -122 50 t-52 122zM369 1130q0 -39 27.5 -66.5t66.5 -27.5v2q39 -2 66.5 26t27.5 66q0 39 -27.5 67t-66.5 28t-66.5 -28t-27.5 -67z" />
<glyph unicode="&#xe6;" horiz-adv-x="1406" d="M82 197v11v9q4 59 29.5 114.5t81.5 84.5q63 33 133.5 55.5t142.5 38.5q29 6 59.5 10t59.5 8v34q0 17 -2 34q-4 80 -34 144.5t-126 64.5q-70 0 -94.5 -32t-36.5 -68q-2 -2 -3 -4.5t-1 -6.5q-12 -35 -31.5 -62.5t-73.5 -27.5q-6 0 -13 1t-15 3q-20 4 -39 17.5t-21 36.5 q0 80 64.5 128t140.5 66q31 8 60.5 12t54.5 4q90 0 157.5 -23.5t126.5 -90.5q53 53 122 83.5t145 30.5q176 0 268 -118.5t92 -284.5v2h-573v-10v-6q-2 -4 -2 -8v-7q0 -18 1 -37.5t3 -37.5q10 -115 65.5 -211.5t192.5 -96.5q86 0 145.5 47.5t110.5 108.5l57 -31 q-51 -96 -143 -150.5t-201 -54.5q-102 0 -196.5 44.5t-153.5 128.5q-41 -59 -109.5 -103.5t-144.5 -58.5q-20 -6 -41 -8.5t-41 -2.5q-96 0 -156.5 63t-60.5 157zM252 238q0 -63 32.5 -108.5t102.5 -45.5q14 0 29.5 2t29.5 6q49 12 94.5 44t65.5 77q-8 18 -10 37.5t-4 40.5 q-2 45 -3 89t-1 89v2q-27 -8 -57.5 -15t-63.5 -16q-80 -23 -147.5 -67.5t-67.5 -134.5zM758 528l391 2v14v15q-4 90 -38 165t-146 75q-100 0 -146.5 -72t-56.5 -160q-2 -10 -3 -19.5t-1 -19.5z" />
<glyph unicode="&#xe7;" horiz-adv-x="886" d="M80 395q0 195 111.5 336t316.5 141q25 0 56.5 -4t66.5 -14q63 -18 116.5 -54t53.5 -95q0 -33 -22.5 -55.5t-57.5 -22.5q-20 0 -37.5 7t-34.5 21q-6 72 -35.5 109t-109.5 37q-106 0 -158.5 -79t-66.5 -171q-4 -27 -6.5 -51.5t-2.5 -46.5q0 -27 2 -54.5t9 -54.5 q18 -109 80.5 -198t183.5 -89q86 0 141 42t94 118v2l62 -22q-39 -111 -131.5 -166.5t-204.5 -55.5l-27 -90q2 0 5 -1t5 -1q59 -14 108.5 -51t49.5 -104q0 -86 -63.5 -135.5t-143.5 -49.5q-51 0 -98 16.5t-88 43.5l29 45q29 -16 61.5 -27.5t65.5 -11.5q45 0 77.5 32.5 t32.5 77.5q0 43 -30.5 71t-69.5 44q-4 2 -9 3t-10 3l45 135q-168 33 -267 136.5t-99 283.5z" />
<glyph unicode="&#xe8;" horiz-adv-x="929" d="M82 414q0 182 108.5 320t303.5 138q174 0 266 -129t92 -288v2h-584q0 -25 1 -48.5t3 -46.5q10 -117 65.5 -213t192.5 -96q90 0 151.5 43t111.5 113l59 -31q-61 -98 -149.5 -149.5t-202.5 -51.5q-193 0 -305.5 125.5t-112.5 311.5zM270 526l400 2v2q0 2 2 7v5v5 q0 94 -38 172t-151 78q-106 0 -155 -78t-56 -170q-2 -6 -2 -11v-12zM272 1227q0 8 5.5 11t11.5 5h4h4l252 2l106 -254q2 -4 2 -7v-5q0 -6 -4 -9t-10 -5h-5h-5q-6 2 -12.5 5t-12.5 5l-323 235q-4 2 -8.5 6.5t-4.5 10.5z" />
<glyph unicode="&#xe9;" horiz-adv-x="929" d="M82 414q0 182 108.5 320t303.5 138q174 0 266 -129t92 -288v2h-584q0 -25 1 -48.5t3 -46.5q10 -117 65.5 -213t192.5 -96q90 0 151.5 43t111.5 113l59 -31q-61 -98 -149.5 -149.5t-202.5 -51.5q-193 0 -305.5 125.5t-112.5 311.5zM270 526l400 2v2q0 2 2 7v5v5 q0 94 -38 172t-151 78q-106 0 -155 -78t-56 -170q-2 -6 -2 -11v-12zM272 977v4v3q0 3 2 5l107 256h252q2 -2 4 -2h4q6 -2 11 -5t5 -11q0 -6 -4 -10l-8 -9l-323 -231q-6 -4 -12.5 -7t-12.5 -5h-5h-5q-6 2 -10.5 5t-4.5 7z" />
<glyph unicode="&#xea;" horiz-adv-x="929" d="M82 414q0 182 108.5 320t303.5 138q174 0 266 -129t92 -288v2h-584q0 -25 1 -48.5t3 -46.5q10 -117 65.5 -213t192.5 -96q90 0 151.5 43t111.5 113l59 -31q-61 -98 -149.5 -149.5t-202.5 -51.5q-193 0 -305.5 125.5t-112.5 311.5zM203 997q0 10 5 17.5t11 13.5l246 246 l248 -244q0 -2 1 -3l3 -3q4 -4 7 -9t3 -11q0 -14 -8 -25.5t-25 -11.5l-2 2q-8 -2 -14 1t-10 7l-3 3q-1 1 -3 1l-197 137l-195 -135l-3 -3l-3 -3q-4 -4 -10 -7t-14 -3l-2 2q-12 -2 -21.5 7t-13.5 21zM270 526l400 2v2q0 2 2 7v5v5q0 94 -38 172t-151 78q-106 0 -155 -78 t-56 -170q-2 -6 -2 -11v-12z" />
<glyph unicode="&#xeb;" horiz-adv-x="929" d="M82 414q0 182 108.5 320t303.5 138q174 0 266 -129t92 -288v2h-584q0 -25 1 -48.5t3 -46.5q10 -117 65.5 -213t192.5 -96q90 0 151.5 43t111.5 113l59 -31q-61 -98 -149.5 -149.5t-202.5 -51.5q-193 0 -305.5 125.5t-112.5 311.5zM156 1090v2q0 49 35.5 84.5t87.5 35.5 q51 0 86.5 -35.5t35.5 -86.5t-35.5 -87t-86.5 -36t-87 36t-36 87zM270 526l400 2v2q0 2 2 7v5v5q0 94 -38 172t-151 78q-106 0 -155 -78t-56 -170q-2 -6 -2 -11v-12zM530 1090v2q0 49 37 84.5t86 35.5q51 0 87 -35.5t36 -86.5t-35.5 -87t-87.5 -36q-49 0 -86 36t-37 87z" />
<glyph unicode="&#xec;" horiz-adv-x="497" d="M27 0v63q82 0 109.5 43.5t27.5 118.5v355q0 74 -30 117.5t-107 45.5v64q53 6 103 14t101 19q27 6 52.5 11t50.5 11v2v-637q0 -78 27.5 -121t109.5 -45v-61h-444zM55 1227q0 8 5.5 11t11.5 5h4h4l252 2l106 -254q2 -4 2 -7v-5q0 -6 -4 -9t-10 -5h-5h-5q-6 2 -12.5 5 t-12.5 5l-323 235q-4 2 -8.5 6.5t-4.5 10.5z" />
<glyph unicode="&#xed;" horiz-adv-x="497" d="M27 0v63q82 0 109.5 43.5t27.5 118.5v355q0 74 -30 117.5t-107 45.5v64q53 6 103 14t101 19q27 6 52.5 11t50.5 11v2v-637q0 -78 27.5 -121t109.5 -45v-61h-444zM55 977v4v3q0 3 2 5l107 256h252q2 -2 4 -2h4q6 -2 11 -5t5 -11q0 -6 -4 -10l-8 -9l-324 -231q-6 -4 -12 -7 t-12 -5h-5h-5q-6 2 -10.5 5t-4.5 7z" />
<glyph unicode="&#xee;" horiz-adv-x="497" d="M-12 997q0 10 5 17.5l9 13.5l246 246l248 -244q0 -2 1 -3l3 -3q4 -4 7 -9t3 -11q0 -14 -8 -25.5t-25 -11.5l-2 2q-8 -2 -14 1t-10 7l-4 3q-1 1 -3 1l-196 137l-195 -135l-3 -3l-3 -3q-4 -4 -10 -7t-14 -3l-3 2q-12 -2 -21 7t-11 21zM27 0v63q82 0 109.5 43.5t27.5 118.5 v355q0 74 -30 117.5t-107 45.5v64q53 6 103 14t101 19q27 6 52.5 11t50.5 11v2v-637q0 -78 27.5 -121t109.5 -45v-61h-444z" />
<glyph unicode="&#xef;" horiz-adv-x="497" d="M-61 1090q2 49 36.5 84.5t85.5 35.5t87 -35.5t36 -87.5q0 -51 -35.5 -86.5t-87.5 -35.5q-51 0 -85.5 35.5t-34.5 86.5zM27 0v63q82 0 109.5 43.5t27.5 118.5v355q0 74 -30 117.5t-107 45.5v64q53 6 103 14t101 19q27 6 52.5 11t50.5 11v2v-637q0 -78 27.5 -121t109.5 -45 v-61h-444zM313 1087v3q0 49 37 84.5t86 35.5q51 0 87 -35.5t36 -87.5q0 -51 -36 -86.5t-87 -35.5q-49 0 -86 35.5t-37 86.5z" />
<glyph unicode="&#xf0;" horiz-adv-x="1050" d="M82 410q0 201 121 331.5t325 130.5q49 0 95.5 -8t91.5 -24q-2 10 -3 20t-3 21q-16 96 -63.5 184t-121.5 149l-231 -149l-39 61l209 134q-63 33 -130 56t-138 36l24 53q10 -2 19.5 -3t17.5 -1q74 -6 146.5 -26.5t136.5 -55.5l227 149l39 -63l-199 -123 q188 -150 276.5 -353.5t88.5 -441.5q0 -211 -105.5 -360.5t-339.5 -149.5q-199 0 -321.5 115t-122.5 318zM266 403q0 -18 1 -35.5t3 -35.5q10 -111 66.5 -204t187.5 -93q129 0 185.5 92t68.5 203q2 23 3 44t1 42v2q0 23 -1 47t-3 51q-12 111 -65.5 203t-186.5 92 q-137 0 -190 -96.5t-66 -210.5q-2 -25 -3 -50.5t-1 -50.5z" />
<glyph unicode="&#xf1;" horiz-adv-x="1062" d="M27 0v63q82 0 109.5 43.5t27.5 118.5v355q0 74 -30 117.5t-107 45.5v64q72 8 141.5 21.5t138.5 33.5v2q4 -10 7 -17t5 -16q8 -23 11.5 -46t3.5 -48q68 61 145.5 98t169.5 37q137 0 193.5 -76.5t56.5 -201.5v-367q0 -78 26.5 -121t108.5 -45v-61h-442v63q82 0 108.5 43.5 t26.5 118.5v346q0 88 -39 142.5t-137 54.5q-63 0 -116.5 -29.5t-100.5 -70.5v-441q0 -78 27.5 -121t109.5 -45v-61h-444zM197 1032q6 10 14 21.5t16 23.5q35 49 83 91t110 42q35 0 67.5 -7t65.5 -17q2 -2 6 -3t6 -1q37 -10 73 -19.5t75 -9.5q37 0 65.5 18.5t52.5 40.5v2 l35 -24q-4 -8 -8 -14l-8 -13q-37 -51 -87 -95t-116 -46q-37 0 -73.5 8t-71.5 21q-37 10 -74 18t-74 8q-33 0 -60.5 -18.5t-47.5 -40.5q-4 -2 -6 -5t-4 -5z" />
<glyph unicode="&#xf2;" horiz-adv-x="1046" d="M82 412q0 205 117.5 332.5t328.5 127.5t324 -123.5t113 -328.5v2q0 -199 -122 -322t-321 -123q-201 0 -320.5 115t-119.5 320zM266 403q0 -18 1 -35.5t3 -35.5q10 -111 65.5 -204t186.5 -93q129 0 185.5 92t68.5 203q2 23 3 44t1 42v2q0 20 -1 41.5t-1 44.5 q-10 117 -60 212t-194 95q-137 0 -190 -96.5t-64 -210.5q-2 -25 -3 -50.5t-1 -50.5zM332 1227q0 8 5 11t11 5h4h4l252 2l107 -254q2 -4 2 -7v-5q0 -6 -4 -9t-11 -5h-5h-5q-6 2 -12 5t-12 5l-324 235q-4 2 -8 6.5t-4 10.5z" />
<glyph unicode="&#xf3;" horiz-adv-x="1046" d="M82 412q0 205 117.5 332.5t328.5 127.5t324 -123.5t113 -328.5v2q0 -199 -122 -322t-321 -123q-201 0 -320.5 115t-119.5 320zM266 403q0 -18 1 -35.5t3 -35.5q10 -111 65.5 -204t186.5 -93q129 0 185.5 92t68.5 203q2 23 3 44t1 42v2q0 20 -1 41.5t-1 44.5 q-10 117 -60 212t-194 95q-137 0 -190 -96.5t-64 -210.5q-2 -25 -3 -50.5t-1 -50.5zM332 977v4v3q0 3 2 5l106 256h252q2 -2 4 -2h4q6 -2 11.5 -5t5.5 -11q0 -6 -4 -10l-8 -9l-324 -231q-6 -4 -12.5 -7t-12.5 -5h-5h-5q-6 2 -10 5t-4 7z" />
<glyph unicode="&#xf4;" horiz-adv-x="1046" d="M82 412q0 205 117.5 332.5t328.5 127.5t324 -123.5t113 -328.5v2q0 -199 -122 -322t-321 -123q-201 0 -320.5 115t-119.5 320zM262 997q0 10 5 17.5t12 13.5l245 246l248 -244q0 -2 1 -3l3 -3q4 -4 7 -9t3 -11q0 -14 -8 -25.5t-24 -11.5l-2 2q-8 -2 -14.5 1t-10.5 7l-3 3 q-1 1 -3 1l-197 137l-194 -135l-3 -3l-3 -3q-4 -4 -10.5 -7t-14.5 -3l-2 2q-12 -2 -21.5 7t-13.5 21zM266 403q0 -18 1 -35.5t3 -35.5q10 -111 65.5 -204t186.5 -93q129 0 185.5 92t68.5 203q2 23 3 44t1 42v2q0 20 -1 41.5t-1 44.5q-10 117 -60 212t-194 95 q-137 0 -190 -96.5t-64 -210.5q-2 -25 -3 -50.5t-1 -50.5z" />
<glyph unicode="&#xf5;" horiz-adv-x="1046" d="M82 412q0 205 117.5 332.5t328.5 127.5t324 -123.5t113 -328.5v2q0 -199 -122 -322t-321 -123q-201 0 -320.5 115t-119.5 320zM188 1032q6 10 14.5 21.5t16.5 23.5q35 49 83 91t110 42q35 0 67.5 -7t65.5 -17q2 -2 6 -3t6 -1q37 -10 73 -19.5t75 -9.5q37 0 65.5 18.5 t52.5 40.5v2l35 -24q-4 -8 -8 -14l-8 -13q-37 -51 -87 -95t-116 -46q-37 0 -74 8t-71 21q-37 10 -74 18t-74 8q-33 0 -60.5 -18.5t-47.5 -40.5q-4 -2 -6.5 -5t-4.5 -5zM266 403q0 -18 1 -35.5t3 -35.5q10 -111 65.5 -204t186.5 -93q129 0 185.5 92t68.5 203q2 23 3 44t1 42 v2q0 20 -1 41.5t-1 44.5q-10 117 -60 212t-194 95q-137 0 -190 -96.5t-64 -210.5q-2 -25 -3 -50.5t-1 -50.5z" />
<glyph unicode="&#xf6;" horiz-adv-x="1046" d="M82 412q0 205 117.5 332.5t328.5 127.5t324 -123.5t113 -328.5v2q0 -199 -122 -322t-321 -123q-201 0 -320.5 115t-119.5 320zM213 1090v2q0 49 36 84.5t87 35.5t87 -35.5t36 -86.5t-36 -87t-87 -36t-87 36t-36 87zM266 403q0 -18 1 -35.5t3 -35.5q10 -111 65.5 -204 t186.5 -93q129 0 185.5 92t68.5 203q2 23 3 44t1 42v2q0 20 -1 41.5t-1 44.5q-10 117 -60 212t-194 95q-137 0 -190 -96.5t-64 -210.5q-2 -25 -3 -50.5t-1 -50.5zM588 1090v2q0 49 37 84.5t86 35.5q51 0 87 -35.5t36 -86.5t-36 -87t-87 -36q-49 0 -86 36t-37 87z" />
<glyph unicode="&#xf7;" />
<glyph unicode="&#xf8;" horiz-adv-x="1052" d="M88 0l105 119q-41 45 -64 103.5t-31 121.5q-2 18 -3 35.5t-1 36.5q0 207 118 334t329 127q18 0 36.5 -1.5t38.5 -3.5q47 -6 93.5 -21t85.5 -42l106 125l60 -51l-105 -121q55 -51 82 -120t35 -140q2 -20 3 -39t1 -37q0 -199 -123 -321.5t-319 -122.5h-14h-13 q-70 4 -136.5 22.5t-121.5 58.5l-103 -114zM279 410q0 -47 5 -94.5t19 -94.5v2l420 510q-33 41 -83 61.5t-103 20.5q-135 0 -188.5 -94t-65.5 -209q-2 -25 -3 -51t-1 -51zM338 145q35 -53 86 -78.5t111 -25.5q129 0 184 91t69 200q2 23 3.5 45t1.5 43q0 23 -1 47.5t-4 48.5 q-2 37 -8 73t-18 68v2z" />
<glyph unicode="&#xf9;" horiz-adv-x="1062" d="M27 809v65h307v-593q0 -92 40 -146.5t138 -54.5q66 0 118 29.5t99 70.5v467q0 76 -27.5 118t-109.5 44v65h307v-647q0 -76 29.5 -120t107.5 -46v-61q-70 0 -140.5 -3t-139.5 -7q-4 10 -7.5 19t-7.5 20q-6 20 -9 40.5t-3 41.5q-68 -61 -145.5 -97.5t-171.5 -36.5 q-96 0 -170 54.5t-78 156.5v66v393q0 76 -27.5 118t-109.5 44zM338 1227q0 8 5 11t11 5h4h4l252 2l107 -254q2 -4 2 -7v-5q0 -6 -4 -9t-10 -5h-6h-5q-6 2 -12 5t-12 5l-324 235q-4 2 -8 6.5t-4 10.5z" />
<glyph unicode="&#xfa;" horiz-adv-x="1062" d="M27 809v65h307v-593q0 -92 40 -146.5t138 -54.5q66 0 118 29.5t99 70.5v467q0 76 -27.5 118t-109.5 44v65h307v-647q0 -76 29.5 -120t107.5 -46v-61q-70 0 -140.5 -3t-139.5 -7q-4 10 -7.5 19t-7.5 20q-6 20 -9 40.5t-3 41.5q-68 -61 -145.5 -97.5t-171.5 -36.5 q-96 0 -170 54.5t-78 156.5v66v393q0 76 -27.5 118t-109.5 44zM338 977v4v3q0 3 2 5l106 256h252q2 -2 4 -2h5q6 -2 11 -5t5 -11q0 -6 -4 -10l-8 -9l-324 -231q-6 -4 -12 -7t-13 -5h-5h-5q-6 2 -10 5t-4 7z" />
<glyph unicode="&#xfb;" horiz-adv-x="1062" d="M27 809v65h307v-593q0 -92 40 -146.5t138 -54.5q66 0 118 29.5t99 70.5v467q0 76 -27.5 118t-109.5 44v65h307v-647q0 -76 29.5 -120t107.5 -46v-61q-70 0 -140.5 -3t-139.5 -7q-4 10 -7.5 19t-7.5 20q-6 20 -9 40.5t-3 41.5q-68 -61 -145.5 -97.5t-171.5 -36.5 q-96 0 -170 54.5t-78 156.5v66v393q0 76 -27.5 118t-109.5 44zM268 997q0 10 5.5 17.5t11.5 13.5l245 246l248 -244q0 -2 1 -3l3 -3q4 -4 7.5 -9t3.5 -11q0 -14 -8.5 -25.5t-24.5 -11.5l-2 2q-8 -2 -14.5 1t-10.5 7l-3 3q-1 1 -3 1l-197 137l-194 -135l-3 -3l-3 -3 q-4 -4 -10.5 -7t-14.5 -3l-2 2q-12 -2 -21.5 7t-13.5 21z" />
<glyph unicode="&#xfc;" horiz-adv-x="1062" d="M27 809v65h307v-593q0 -92 40 -146.5t138 -54.5q66 0 118 29.5t99 70.5v467q0 76 -27.5 118t-109.5 44v65h307v-647q0 -76 29.5 -120t107.5 -46v-61q-70 0 -140.5 -3t-139.5 -7q-4 10 -7.5 19t-7.5 20q-6 20 -9 40.5t-3 41.5q-68 -61 -145.5 -97.5t-171.5 -36.5 q-96 0 -170 54.5t-78 156.5v66v393q0 76 -27.5 118t-109.5 44zM221 1090v2q0 49 36 84.5t87 35.5t87 -35.5t36 -86.5t-36 -87t-87 -36t-87 36t-36 87zM596 1090v2q0 49 37 84.5t86 35.5q51 0 87 -35.5t36 -86.5t-36 -87t-87 -36q-49 0 -86 36t-37 87z" />
<glyph unicode="&#xfd;" />
<glyph unicode="&#xfe;" horiz-adv-x="1081" d="M27 -483q82 2 109.5 44t27.5 120v1456q0 74 -30 117.5t-107 45.5v64q72 8 141.5 21.5t138.5 33.5q12 -20 19.5 -41.5t7.5 -46.5v-583q53 55 127 88.5t151 33.5q186 0 286.5 -132t100.5 -306q0 -176 -102 -315.5t-295 -139.5h-11h-11q-66 4 -130.5 27t-115.5 66v2v-391 q0 -104 43 -133t135 -33v-62h-485v64zM334 166q45 -47 100 -76t119 -33q127 0 185.5 92.5t72.5 202.5q4 23 5 45.5t1 42.5t-1 43t-5 45q-14 98 -66.5 179t-164.5 81q-82 0 -143.5 -51t-102.5 -116v-455z" />
<glyph unicode="&#xff;" horiz-adv-x="954" d="M-6 850h393v-62q-8 -2 -17.5 -2t-19.5 -2q-18 -2 -34.5 -11t-16.5 -30q0 -8 3 -17t5 -19l221 -478l215 480l4.5 9t4.5 11t4 11t2 12v4q0 14 -14.5 20t-30.5 8q-6 0 -12.5 1t-12.5 1h-5h-5l-14 2v62h299v-62l-21 -2q-45 -6 -71.5 -22t-47.5 -57l-436 -953 q-12 -27 -25.5 -58.5t-29.5 -64.5q-37 -72 -88 -132t-125 -60h-7h-8q-33 4 -59.5 23.5t-26.5 56.5q0 12 3.5 23.5t11.5 21.5q4 0 8 -1t8 -1q2 0 6 -1t8 -1q98 0 167 84t120 186q27 53 49.5 105.5t40.5 89.5l-319 684q-20 39 -51 57t-74 20zM168 1087v3q0 49 36 84.5t87 35.5 t87 -35.5t36 -87.5q0 -51 -36 -86.5t-87 -35.5t-87 35.5t-36 86.5zM543 1087v3q0 49 36.5 84.5t86.5 35.5q51 0 86.5 -35.5t35.5 -87.5q0 -51 -35.5 -86.5t-86.5 -35.5q-49 0 -86 35.5t-37 86.5z" />
<glyph unicode="&#x152;" horiz-adv-x="1896" d="M96 688q0 287 179.5 489.5t474.5 202.5q31 0 62.5 -2t64.5 -6q31 -2 62.5 -5t61.5 -3l736 2l37 -334h-66q-20 119 -87 189.5t-194 70.5l-284 2v-499h117q100 -2 148 47t50 143l64 2v-465h-64l-2 25q-6 96 -50 136t-140 40l-123 2v-465q0 -127 64.5 -160.5t176.5 -33.5 q199 0 300.5 79.5t134.5 278.5v2h61l-27 -426h-860q-27 0 -54.5 -3t-53.5 -9q-29 -4 -55.5 -7.5t-55.5 -3.5q-319 0 -498.5 201t-179.5 510zM336 643q0 -23 1 -45.5t3 -46.5q6 -86 28.5 -169t71.5 -155q47 -70 127 -119t168 -49q96 0 149.5 40t53.5 141v20v1022 q-45 12 -92 19.5t-94 7.5q-207 0 -294 -147.5t-110 -325.5q-6 -49 -9 -98.5t-3 -94.5z" />
<glyph unicode="&#x153;" horiz-adv-x="1359" d="M0 414q0 184 108.5 320t305.5 136q94 0 165.5 -27.5t133.5 -97.5q53 59 123.5 93t152.5 34q182 0 273.5 -115.5t97.5 -285.5l-580 2q0 -27 1 -52.5t3 -49.5q12 -115 66.5 -211.5t191.5 -96.5q86 0 148.5 44.5t109.5 109.5l60 -31q-57 -92 -139 -145t-195 -57 q-88 0 -167 26.5t-146 83.5q-66 -57 -136.5 -87t-162.5 -30q-190 0 -302 125.5t-112 311.5zM178 424q0 -31 2 -65.5t8 -71.5q14 -92 62.5 -169t152.5 -77t149.5 78t59.5 170q4 39 6.5 75.5t2.5 69.5q0 31 -2.5 64.5t-8.5 70.5q-16 88 -61 161t-141 73v2q-104 -2 -153.5 -80 t-66.5 -172q-6 -33 -8 -66.5t-2 -62.5zM782 528v2h392q0 12 -1.5 28.5t-3.5 33.5q-8 78 -48 143.5t-134 65.5t-142 -69.5t-59 -151.5q-2 -14 -3 -27t-1 -25z" />
<glyph unicode="&#x178;" horiz-adv-x="1357" d="M-6 1366h586v-63h-52q-8 -2 -18 -2.5t-21 -2.5q-23 -4 -41 -14t-18 -35q0 -12 4 -25.5t10 -23.5q0 -4 2.5 -6t2.5 -4l292 -502l306 504q2 0 3 2t1 4q6 10 10 21.5t4 23.5q0 39 -56.5 48t-131.5 9v66h489v-63q-82 -6 -140.5 -34t-101.5 -100l-344 -561v-381 q0 -115 55.5 -138t149.5 -28v-61h-610v63q102 2 153.5 26t51.5 136v383l-375 584q-39 61 -89 83.5t-120 24.5zM371 1575v2q0 49 35.5 85t87.5 36q51 0 86.5 -36t35.5 -87t-35.5 -87t-86.5 -36t-87 36t-36 87zM745 1575v2q0 49 37 85t86 36q51 0 87 -36t36 -87t-35.5 -87 t-87.5 -36q-49 0 -86 36t-37 87z" />
<glyph unicode="&#x2c6;" horiz-adv-x="1024" d="M178 1032q6 10 14.5 21.5t16.5 23.5q35 49 83 91t109 42q35 0 68 -7t66 -17q2 -2 6 -3t6 -1q37 -10 72.5 -19.5t74.5 -9.5q37 0 65.5 18.5t53.5 40.5v2l35 -24q-4 -8 -8 -14l-9 -13q-37 -51 -87 -95t-115 -46q-37 0 -74 8t-72 21q-37 10 -73.5 18t-73.5 8 q-33 0 -60.5 -18.5t-48.5 -40.5q-4 -2 -6 -5t-4 -5z" />
<glyph unicode="&#x2dc;" horiz-adv-x="1024" d="M252 997q0 10 5 17.5t11 13.5l246 246l248 -244q0 -2 1 -3l3 -3q4 -4 7 -9t3 -11q0 -14 -8 -25.5t-25 -11.5l-2 2q-8 -2 -14 1t-10 7l-3 3q-1 1 -3 1l-197 137l-195 -135l-3 -3l-3 -3q-4 -4 -10 -7t-14 -3l-2 2q-12 -2 -21.5 7t-13.5 21z" />
<glyph unicode="&#x2000;" horiz-adv-x="894" />
<glyph unicode="&#x2001;" horiz-adv-x="1789" />
<glyph unicode="&#x2002;" horiz-adv-x="894" />
<glyph unicode="&#x2003;" horiz-adv-x="1789" />
<glyph unicode="&#x2004;" horiz-adv-x="595" />
<glyph unicode="&#x2005;" horiz-adv-x="446" />
<glyph unicode="&#x2006;" horiz-adv-x="296" />
<glyph unicode="&#x2007;" horiz-adv-x="296" />
<glyph unicode="&#x2008;" horiz-adv-x="223" />
<glyph unicode="&#x2009;" horiz-adv-x="356" />
<glyph unicode="&#x200a;" horiz-adv-x="98" />
<glyph unicode="&#x2010;" horiz-adv-x="436" d="M0 393v101h436v-101h-436z" />
<glyph unicode="&#x2011;" horiz-adv-x="436" d="M0 393v101h436v-101h-436z" />
<glyph unicode="&#x2012;" horiz-adv-x="436" d="M0 393v101h436v-101h-436z" />
<glyph unicode="&#x2013;" horiz-adv-x="956" d="M25 393v103h909v-103h-909z" />
<glyph unicode="&#x2014;" horiz-adv-x="1298" d="M0 391v103h1298v-103h-1298z" />
<glyph unicode="&#x2018;" horiz-adv-x="485" d="M92 1047q0 121 79 219t191 133v2v-37q-61 -45 -111 -103.5t-50 -140.5q0 -20 5 -38.5t11 -37.5q8 0 15.5 1.5t15.5 1.5q6 2 13 2h15q47 0 78 -34t31 -79t-34 -79t-81 -34q-74 0 -119 57.5t-55 125.5q-2 10 -3 20.5t-1 20.5z" />
<glyph unicode="&#x2019;" horiz-adv-x="485" d="M92 1284q0 47 35 81t80 34q74 0 119 -57.5t55 -124.5q2 -10 3 -20.5t1 -20.5q0 -119 -78 -218.5t-192 -134.5v2v35q61 43 111 101.5t50 140.5q0 20 -4 38.5t-12 37.5l-29 -4q-14 -2 -30 -3q-45 0 -77 34t-32 79z" />
<glyph unicode="&#x201a;" />
<glyph unicode="&#x201c;" horiz-adv-x="833" d="M92 1047q0 121 79 219t191 133v2v-37q-61 -45 -111 -103.5t-50 -140.5q0 -20 5 -38.5t11 -37.5q8 0 15.5 1.5t15.5 1.5q6 2 13 2h15q47 0 78 -34t31 -79t-34 -79t-81 -34q-74 0 -119 57.5t-55 125.5q-2 10 -3 20.5t-1 20.5zM440 1047q0 121 79 219t192 133v2v-37 q-61 -45 -111.5 -103.5t-50.5 -140.5q0 -20 5 -38.5t11 -37.5q8 0 15.5 1.5t15.5 1.5q6 2 13 2h16q47 0 77.5 -34t30.5 -79t-33.5 -79t-81.5 -34q-74 0 -118.5 57.5t-55.5 125.5q-2 10 -3 20.5t-1 20.5z" />
<glyph unicode="&#x201d;" horiz-adv-x="833" d="M92 1284q0 47 35 81t80 34q74 0 119 -57.5t55 -124.5q2 -10 3 -20.5t1 -20.5q0 -119 -78 -218.5t-192 -134.5v2v35q61 43 111 101.5t50 140.5q0 20 -4 38.5t-12 37.5l-29 -4q-14 -2 -30 -3q-45 0 -77 34t-32 79zM440 1284q0 47 35 81t80 34q74 0 119 -57.5t55 -124.5 q2 -10 3 -20.5t1 -20.5q0 -119 -76.5 -218.5t-191.5 -134.5v2v35q59 43 109.5 101.5t50.5 140.5q0 20 -4.5 38.5t-10.5 37.5q-14 -2 -29.5 -4.5t-29.5 -2.5q-45 0 -78 34t-33 79z" />
<glyph unicode="&#x201e;" horiz-adv-x="833" d="M92 104q0 47 35 81t80 34q74 0 119 -57.5t55 -124.5q2 -10 3 -20.5t1 -18.5q0 -121 -78 -220.5t-192 -131.5v35q61 45 111 103t50 140q0 20 -4 39t-12 37q-14 -4 -28.5 -5t-30.5 -1q-45 0 -77 32.5t-32 77.5zM440 104q0 47 35 81t80 34q74 0 119 -57.5t55 -124.5 q2 -10 3 -20.5t1 -18.5q0 -121 -76.5 -220.5t-191.5 -131.5v35q59 45 109.5 103t50.5 140q0 20 -4.5 39t-10.5 37q-14 -4 -29.5 -5t-29.5 -1q-45 0 -78 32.5t-33 77.5z" />
<glyph unicode="&#x2022;" horiz-adv-x="1228" d="M406 584v2q0 80 57 137t139 57q84 0 142.5 -57t58.5 -139t-58.5 -139.5t-142.5 -57.5q-82 0 -139 57.5t-57 139.5z" />
<glyph unicode="&#x2026;" horiz-adv-x="1456" d="M129 86q0 47 34 81t81 34t79.5 -34t32.5 -81t-32.5 -80t-79.5 -33t-81 33t-34 80zM614 86q0 47 34 81t81 34t80 -34t33 -81t-33 -80t-80 -33t-81 33t-34 80zM1100 86q0 47 33.5 81t80.5 34t80 -34t33 -81t-32.5 -80t-80 -33t-81 33t-33.5 80z" />
<glyph unicode="&#x202f;" horiz-adv-x="356" />
<glyph unicode="&#x2039;" horiz-adv-x="559" d="M78 442q0 10 6 17.5t12 13.5q0 2 1 3t3 1l265 248q4 0 7 3l7 7q2 0 2 1t2 1q14 12 28.5 21.5t30.5 13.5q14 0 25.5 -5t11.5 -22q0 -12 -4 -22t-10 -21q-2 -4 -4 -7t-4 -7l-195 -244l195 -245q10 -14 16 -26.5t6 -29.5v-2q0 -14 -10 -21t-23 -7q-18 0 -33.5 10t-27.5 20 q-6 6 -11 10.5t-9 8.5l-265 248q-2 -2 -3 -1t-1 3q-6 6 -12 14t-6 16z" />
<glyph unicode="&#x203a;" horiz-adv-x="559" d="M82 139q0 16 6 29.5t16 26.5l195 249l-195 246q-2 0 -3 2l-1 2q-6 12 -12 22.5t-6 22.5q0 14 9 23.5t24 9.5q18 0 33.5 -10t27.5 -21q6 -6 11.5 -10t9.5 -8l264 -244q2 -4 3 -5l1 -1q6 -6 12 -13t6 -18q0 -8 -6 -16t-12 -14q0 -2 -1 -3t-3 -1l-264 -244q-4 -6 -9.5 -10 t-11.5 -11q-12 -10 -26.5 -20t-30.5 -10q-14 0 -25.5 5t-11.5 21z" />
<glyph unicode="&#x205f;" horiz-adv-x="446" />
<glyph unicode="&#x2122;" horiz-adv-x="2002" d="M4 1157l23 209h796l23 -209h-53q-20 63 -53 108.5t-111 45.5l-133 2v-625q0 -68 29.5 -79t82.5 -13h7h8v-49h-396v51q4 -2 7 -2h8q53 2 82.5 13.5t29.5 76.5v627h-133q-78 -2 -110.5 -47t-53.5 -111zM877 547v51q84 0 105.5 33t21.5 110v467v29q0 51 -36 63.5t-81 12.5 h-5h-5v53h278l195 -442q10 -25 19 -48.5t20 -48.5q8 -25 17 -48t19 -46l2 8l273 625h276v-51q-4 -2 -7 -2h-7q-53 -2 -83 -13.5t-30 -76.5v-535v-12q0 -16 3 -31.5t14 -26.5q8 -8 21.5 -13t27.5 -7q10 -2 20 -2h19l22 2v-51h-399v51q10 -2 19.5 -2t17.5 2q63 2 77.5 28.5 t14.5 82.5v405v26q0 13 2 27v26v28q-2 -6 -4 -11.5t-4 -9.5q-2 -6 -4 -11t-4 -11l-277 -631h-51l-252 577q-10 23 -20 47l-21 50v-449q0 -90 16.5 -130t108.5 -46v-49h-319z" />
<glyph unicode="&#xe000;" horiz-adv-x="850" d="M0 850h850v-850h-850v850z" />
<glyph unicode="&#xfb01;" horiz-adv-x="1040" d="M570 0v63q82 0 109.5 43.5t27.5 118.5v355q0 74 -30 117.5t-107 45.5v64q53 6 103 14t101 19q27 6 52.5 11t50.5 11v2v-637q0 -78 27.5 -121t109.5 -45v-61h-444zM686 1106q0 45 33 73.5t76 28.5q41 0 71.5 -30.5t30.5 -71.5t-30.5 -71.5t-71.5 -30.5v2q-3 0 -6 -1 q-40 0 -70 28q-33 30 -33 73zM27 791v61h143v59q0 31 2 62q8 154 68.5 282.5t265.5 128.5q10 0 20.5 -1t22.5 -3q53 -8 99 -41.5t46 -95.5q0 -33 -22.5 -58.5t-57.5 -25.5q-47 0 -60 24.5t-17 53.5q-2 2 -2 4v2q-4 29 -13.5 50.5t-46.5 21.5q-66 0 -94.5 -46t-36.5 -104 q-2 -16 -3 -32.5t-1 -32.5v-248h184v-61h-184v-564q0 -104 42 -134t136 -34v-59h-485v63q82 0 109.5 43.5t27.5 118.5v566h-143z" />
<glyph unicode="&#xfb02;" horiz-adv-x="1040" d="M570 0v63q82 0 109.5 43.5t27.5 118.5v914q0 72 -30 115.5t-107 45.5v66q53 6 103 14.5t101 18.5q27 4 52.5 9t50.5 11v-1192q0 -78 27.5 -121t109.5 -45v-61h-444zM27 791v61h143v59q0 31 2 62q8 154 68.5 282.5t265.5 128.5q10 0 20.5 -1t22.5 -3q53 -8 99 -41.5 t46 -95.5q0 -33 -22.5 -58.5t-57.5 -25.5q-47 0 -60 24.5t-17 53.5q-2 2 -2 4v2q-4 29 -13.5 50.5t-46.5 21.5q-66 0 -94.5 -46t-36.5 -104q-2 -16 -3 -32.5t-1 -32.5v-248h184v-61h-184v-564q0 -104 42 -134t136 -34v-59h-485v63q82 0 109.5 43.5t27.5 118.5v566h-143z" />
<glyph unicode="&#xfb03;" horiz-adv-x="1583" d="M1112 0v63q82 0 109.5 43.5t27.5 118.5v355q0 74 -30 117.5t-107 45.5v64q53 6 103 14t101 19q27 6 52.5 11t50.5 11v2v-637q0 -78 27.5 -121t109.5 -45v-61h-444zM1228 1106q0 45 33 73.5t76 28.5q41 0 71.5 -30.5t30.5 -71.5t-30.5 -71.5t-71.5 -30.5v2q-3 0 -6 -1 q-40 0 -70 28q-33 30 -33 73zM570 791v61h143v59q0 31 2 62q8 154 68.5 282.5t265.5 128.5q10 0 20.5 -1t22.5 -3q53 -8 99 -41.5t46 -95.5q0 -33 -22.5 -58.5t-57.5 -25.5q-47 0 -60 24.5t-17 53.5q-2 2 -2 4v2q-4 29 -13.5 50.5t-46.5 21.5q-66 0 -94.5 -46t-36.5 -104 q-2 -16 -3 -32.5t-1 -32.5v-248h184v-61h-184v-564q0 -104 42 -134t136 -34v-59h-485v63q82 0 109.5 43.5t27.5 118.5v566h-143zM27 791v61h143v59q0 31 2 62q8 154 68.5 282.5t265.5 128.5q10 0 20.5 -1t22.5 -3q53 -8 99 -41.5t46 -95.5q0 -33 -22.5 -58.5t-57.5 -25.5 q-47 0 -60 24.5t-17 53.5q-2 2 -2 4v2q-4 29 -13.5 50.5t-46.5 21.5q-66 0 -94.5 -46t-36.5 -104q-2 -16 -3 -32.5t-1 -32.5v-248h184v-61h-184v-564q0 -104 42 -134t136 -34v-59h-485v63q82 0 109.5 43.5t27.5 118.5v566h-143z" />
<glyph unicode="&#xfb04;" horiz-adv-x="1583" d="M1112 0v63q82 0 109.5 43.5t27.5 118.5v914q0 72 -30 115.5t-107 45.5v66q53 6 103 14.5t101 18.5q27 4 52.5 9t50.5 11v-1192q0 -78 27.5 -121t109.5 -45v-61h-444zM570 791v61h143v59q0 31 2 62q8 154 68.5 282.5t265.5 128.5q10 0 20.5 -1t22.5 -3q53 -8 99 -41.5 t46 -95.5q0 -33 -22.5 -58.5t-57.5 -25.5q-47 0 -60 24.5t-17 53.5q-2 2 -2 4v2q-4 29 -13.5 50.5t-46.5 21.5q-66 0 -94.5 -46t-36.5 -104q-2 -16 -3 -32.5t-1 -32.5v-248h184v-61h-184v-564q0 -104 42 -134t136 -34v-59h-485v63q82 0 109.5 43.5t27.5 118.5v566h-143z M27 791v61h143v59q0 31 2 62q8 154 68.5 282.5t265.5 128.5q10 0 20.5 -1t22.5 -3q53 -8 99 -41.5t46 -95.5q0 -33 -22.5 -58.5t-57.5 -25.5q-47 0 -60 24.5t-17 53.5q-2 2 -2 4v2q-4 29 -13.5 50.5t-46.5 21.5q-66 0 -94.5 -46t-36.5 -104q-2 -16 -3 -32.5t-1 -32.5v-248 h184v-61h-184v-564q0 -104 42 -134t136 -34v-59h-485v63q82 0 109.5 43.5t27.5 118.5v566h-143z" />
</font>
</defs>
</svg>
